<svg xmlns="http://www.w3.org/2000/svg" xmlns:xlink="http://www.w3.org/1999/xlink" id="svg" width="400" height="400" version="1.1" viewBox="0 0 400 400"><g id="svgg"><path id="path0" fill="#8c1414" fill-rule="evenodd" stroke="none" d="M0.006 37.697 L 0.012 75.394 0.508 74.821 C 1.026 74.222,2.468 72.621,3.519 71.476 C 4.489 70.420,6.476 68.229,7.505 67.081 C 8.023 66.503,8.724 65.729,9.064 65.361 C 9.866 64.491,20.313 52.957,21.022 52.158 C 21.180 51.981,21.657 51.460,22.081 51.001 C 22.746 50.284,25.702 47.014,26.565 46.043 C 26.722 45.865,27.201 45.345,27.629 44.886 C 28.393 44.065,36.722 34.866,38.094 33.326 C 38.959 32.356,38.995 32.616,37.729 30.675 C 35.897 27.864,34.344 23.989,33.909 21.142 C 33.847 20.734,33.759 20.218,33.714 19.995 C 33.435 18.603,33.680 13.406,34.123 11.332 C 34.253 10.720,34.246 10.714,31.694 9.038 C 30.286 8.114,28.695 7.035,28.158 6.641 C 27.622 6.247,27.094 5.925,26.985 5.925 C 26.877 5.925,26.759 5.855,26.724 5.770 C 26.671 5.641,20.309 1.306,19.538 0.874 C 19.399 0.796,18.992 0.970,18.582 1.285 C 17.686 1.972,15.522 3.012,14.683 3.158 C 14.333 3.220,13.746 3.337,13.378 3.419 C 10.509 4.059,5.474 2.610,3.548 0.589 C 3.014 0.029,2.912 0.000,1.493 0.000 L 0.000 0.000 0.006 37.697 M25.139 1.517 C 26.396 2.351,27.511 3.107,27.616 3.197 C 29.496 4.801,35.088 8.176,35.233 7.792 C 35.909 5.999,38.516 1.449,39.151 0.956 C 39.218 0.903,39.438 0.667,39.638 0.430 L 40.002 0.000 31.428 0.000 L 22.854 0.000 25.139 1.517 M77.808 0.353 C 77.952 0.547,78.518 1.299,79.066 2.025 C 85.748 10.873,85.349 24.708,78.175 32.867 C 76.272 35.032,74.024 37.020,72.336 38.031 C 71.916 38.283,71.529 38.537,71.476 38.595 C 71.221 38.877,68.233 40.203,66.682 40.723 C 60.258 42.875,52.831 42.262,47.028 39.100 C 44.994 37.991,45.282 37.914,43.383 40.082 C 42.489 41.101,41.580 42.111,41.361 42.325 C 41.143 42.539,40.080 43.703,39.000 44.912 C 37.919 46.120,36.670 47.496,36.225 47.969 C 35.780 48.442,34.528 49.818,33.444 51.027 C 30.414 54.405,28.602 56.406,28.268 56.742 C 28.102 56.910,27.500 57.568,26.931 58.203 C 24.021 61.454,23.002 62.582,22.726 62.859 C 22.559 63.026,21.493 64.195,20.358 65.456 C 19.222 66.718,18.021 68.051,17.689 68.419 C 17.358 68.786,16.156 70.119,15.019 71.381 C 13.882 72.642,12.588 74.061,12.145 74.534 C 11.701 75.007,10.410 76.426,9.275 77.688 C 6.087 81.230,5.758 81.593,3.898 83.624 C 2.941 84.668,1.866 85.862,1.509 86.276 C 1.152 86.689,0.667 87.223,0.430 87.461 L -0.000 87.895 0.000 156.888 L 0.000 225.881 0.717 226.070 C 1.111 226.174,3.153 226.683,5.256 227.203 C 7.358 227.722,15.786 229.842,23.985 231.914 C 32.183 233.986,44.138 237.000,50.549 238.611 C 62.673 241.658,66.568 242.648,67.120 242.822 C 67.358 242.898,67.556 242.706,67.861 242.103 C 72.611 232.722,84.844 229.526,93.837 235.317 C 100.685 239.727,103.793 248.804,101.049 256.378 C 95.662 271.246,75.777 272.822,67.965 259.001 C 67.616 258.383,67.272 257.648,67.202 257.367 C 67.061 256.806,66.872 256.766,65.684 257.044 C 65.244 257.147,62.862 257.618,60.392 258.090 C 52.642 259.571,34.111 263.141,29.623 264.018 C 27.258 264.480,23.516 265.205,21.309 265.629 C 19.102 266.054,14.157 267.012,10.320 267.759 C 6.484 268.506,3.069 269.164,2.732 269.222 C 2.177 269.316,2.110 269.401,2.030 270.114 C 1.648 273.523,1.457 274.449,0.802 276.055 L 0.099 277.783 0.049 338.892 L -0.001 400.000 40.038 400.000 C 62.059 400.000,80.076 399.956,80.076 399.902 C 80.076 399.848,79.917 399.225,79.722 398.516 C 78.744 394.959,79.625 390.797,81.947 388.007 C 82.903 386.858,82.905 386.936,81.892 385.737 C 80.830 384.480,70.349 372.280,69.929 371.811 C 69.740 371.601,69.074 370.827,68.448 370.091 C 67.822 369.355,66.453 367.764,65.407 366.555 C 64.360 365.346,63.284 364.099,63.016 363.784 C 62.747 363.469,61.681 362.229,60.647 361.030 C 59.613 359.831,58.220 358.197,57.551 357.399 C 56.882 356.601,55.979 355.555,55.544 355.074 C 55.110 354.593,54.367 353.738,53.894 353.174 C 53.421 352.609,51.959 350.902,50.645 349.379 C 49.331 347.857,47.557 345.788,46.703 344.782 C 45.849 343.776,44.852 342.613,44.487 342.197 L 43.823 341.441 42.695 341.940 C 40.863 342.752,37.173 343.200,35.783 342.781 C 35.601 342.726,35.225 342.642,34.949 342.595 C 25.516 340.976,22.371 327.185,30.041 321.078 C 41.794 311.720,56.677 326.867,47.260 338.602 C 46.521 339.524,46.507 339.470,47.898 341.065 C 49.976 343.447,52.870 346.805,53.396 347.444 C 53.698 347.812,54.400 348.629,54.955 349.259 C 55.510 349.890,57.097 351.739,58.482 353.368 C 59.866 354.998,61.099 356.417,61.221 356.522 C 61.343 356.627,62.085 357.487,62.869 358.433 C 64.528 360.435,68.877 365.504,69.455 366.111 C 69.673 366.340,70.125 366.856,70.459 367.258 C 72.187 369.338,74.980 372.599,75.178 372.766 C 75.302 372.871,75.588 373.198,75.815 373.491 C 76.041 373.784,76.655 374.515,77.180 375.115 C 77.705 375.715,79.731 378.071,81.682 380.350 C 85.843 385.210,85.353 384.807,86.487 384.305 C 92.638 381.585,99.842 384.089,102.652 389.925 C 103.038 390.727,103.151 390.827,103.577 390.740 C 104.032 390.646,109.381 389.783,110.846 389.566 C 111.214 389.512,112.805 389.259,114.381 389.006 C 120.088 388.087,127.198 386.948,127.759 386.864 C 128.075 386.816,130.483 386.438,133.110 386.024 C 135.738 385.610,138.189 385.227,138.557 385.172 C 138.925 385.116,140.516 384.864,142.093 384.611 C 143.669 384.357,148.227 383.634,152.222 383.003 C 156.216 382.372,161.978 381.460,165.026 380.976 C 170.499 380.108,177.151 379.058,180.909 378.470 L 182.841 378.167 182.835 375.658 C 182.824 371.181,183.854 367.095,185.794 363.924 C 186.197 363.265,186.527 362.649,186.527 362.554 C 186.527 362.460,186.591 362.354,186.670 362.319 C 186.749 362.284,187.174 361.782,187.615 361.204 C 188.552 359.977,190.797 357.646,191.573 357.095 C 191.869 356.885,192.211 356.627,192.334 356.522 C 192.690 356.217,193.766 355.471,193.850 355.471 C 193.892 355.471,194.562 355.121,195.339 354.694 C 206.180 348.734,220.794 353.344,226.599 364.555 C 229.565 370.283,230.109 377.866,227.928 383.059 C 227.630 383.768,227.651 384.138,227.989 384.138 C 228.077 384.138,230.803 385.438,234.046 387.027 C 237.289 388.616,241.319 390.584,243.000 391.400 C 244.682 392.216,248.208 393.935,250.836 395.221 C 253.464 396.507,256.754 398.108,258.147 398.779 L 260.681 400.000 330.340 400.000 L 400.000 400.000 400.000 199.998 L 400.000 -0.003 369.183 0.058 C 338.366 0.120,338.366 0.120,336.359 0.537 C 332.600 1.319,327.383 1.284,323.937 0.454 C 323.250 0.289,321.456 0.116,319.924 0.067 L 317.152 -0.022 314.025 5.037 C 312.305 7.820,310.800 10.268,310.680 10.477 C 310.561 10.686,309.754 11.985,308.887 13.363 C 308.020 14.741,307.310 15.946,307.310 16.041 C 307.310 16.135,307.243 16.241,307.160 16.276 C 307.078 16.312,306.670 16.902,306.253 17.589 C 305.313 19.137,305.433 18.944,303.064 22.734 C 301.983 24.464,301.013 26.031,300.908 26.216 C 300.803 26.401,298.985 29.329,296.868 32.722 C 294.751 36.115,292.859 39.161,292.663 39.490 C 292.468 39.820,291.598 41.219,290.731 42.599 C 289.864 43.979,289.154 45.156,289.154 45.214 C 289.154 45.272,288.950 45.593,288.700 45.928 C 288.335 46.417,284.237 52.967,282.882 55.229 C 282.705 55.523,281.873 56.867,281.032 58.216 C 280.191 59.565,279.417 60.818,279.312 61.000 C 279.207 61.182,277.708 63.592,275.981 66.356 C 272.427 72.044,267.882 79.363,267.105 80.650 C 266.632 81.434,264.945 84.163,264.506 84.854 C 264.406 85.012,263.791 86.001,263.140 87.052 C 262.489 88.103,261.681 89.393,261.345 89.919 C 259.381 92.994,256.283 98.075,256.283 98.220 C 256.283 98.315,256.217 98.420,256.136 98.455 C 255.975 98.525,254.754 100.396,254.754 100.573 C 254.754 100.634,255.381 101.314,256.147 102.085 C 256.914 102.857,258.010 104.090,258.583 104.826 C 259.156 105.561,259.690 106.192,259.770 106.227 C 259.849 106.262,259.914 106.402,259.914 106.538 C 259.914 106.674,260.041 106.891,260.197 107.020 C 260.352 107.149,260.597 107.482,260.740 107.760 C 260.884 108.038,261.426 109.040,261.944 109.986 C 265.498 116.470,266.660 124.738,265.061 132.155 C 264.437 135.047,262.895 139.308,261.903 140.878 C 261.650 141.279,261.443 141.661,261.443 141.727 C 261.443 142.667,256.320 148.741,253.887 150.686 C 253.365 151.103,252.895 151.502,252.843 151.572 C 252.579 151.924,248.883 154.165,247.198 154.994 C 233.897 161.539,216.983 157.987,207.645 146.688 C 207.224 146.179,206.794 145.667,206.689 145.549 C 204.527 143.135,201.332 136.296,200.565 132.441 C 197.771 118.406,203.356 105.159,215.354 97.366 C 215.915 97.001,216.417 96.703,216.471 96.703 C 216.524 96.703,216.796 96.545,217.075 96.351 C 218.479 95.377,223.841 93.458,226.469 92.989 C 227.363 92.830,228.352 92.651,228.667 92.593 C 232.347 91.904,239.530 92.693,243.746 94.247 C 244.593 94.559,245.311 94.745,245.342 94.660 C 245.386 94.540,250.410 86.430,254.122 80.488 C 254.408 80.031,254.731 79.499,254.841 79.305 C 254.951 79.111,255.463 78.280,255.980 77.460 C 256.496 76.639,257.227 75.469,257.604 74.860 C 257.981 74.251,258.720 73.068,259.245 72.232 C 259.771 71.395,260.545 70.145,260.965 69.454 C 261.386 68.763,262.053 67.691,262.448 67.072 C 262.843 66.452,263.746 64.999,264.455 63.843 C 265.163 62.687,267.067 59.610,268.684 57.005 C 272.811 50.361,272.789 50.397,273.045 49.974 C 273.171 49.765,273.679 48.949,274.174 48.161 C 276.037 45.187,276.471 44.492,277.401 42.989 C 278.357 41.443,279.078 40.282,280.807 37.505 C 283.343 33.432,287.851 26.169,290.385 22.074 C 291.946 19.551,293.496 17.057,293.830 16.531 C 294.163 16.006,294.938 14.759,295.550 13.760 C 297.791 10.107,298.198 9.451,298.512 8.982 C 298.687 8.720,298.892 8.376,298.965 8.218 C 299.039 8.060,300.211 6.168,301.571 4.013 L 304.042 0.096 267.231 0.047 C 246.985 0.021,230.389 0.029,230.352 0.067 C 230.315 0.104,230.425 0.770,230.595 1.548 C 231.641 6.303,230.395 13.222,227.752 17.340 C 227.467 17.784,227.234 18.236,227.234 18.343 C 227.234 18.450,227.166 18.538,227.084 18.538 C 227.001 18.538,226.774 18.808,226.580 19.138 C 226.385 19.468,226.087 19.882,225.917 20.059 C 225.748 20.236,225.100 20.921,224.479 21.581 C 218.892 27.509,210.157 29.886,202.007 27.695 C 190.836 24.694,183.350 12.654,185.667 1.418 C 185.719 1.164,185.807 0.741,185.861 0.478 L 185.960 0.000 131.753 0.000 C 79.091 0.000,77.553 0.010,77.808 0.353 M399.802 17.057 L 399.795 24.940 399.348 24.394 C 396.822 21.305,396.222 15.971,397.969 12.127 C 398.410 11.156,399.612 9.175,399.761 9.174 C 399.787 9.174,399.806 12.721,399.802 17.057 M90.014 62.319 C 94.171 62.782,99.104 64.294,102.914 66.271 C 103.650 66.653,104.512 67.099,104.829 67.262 C 107.962 68.874,113.101 73.293,115.844 76.732 C 125.509 88.854,127.265 105.603,120.292 119.155 L 119.410 120.868 119.882 121.256 C 120.141 121.469,120.631 121.859,120.970 122.121 C 121.310 122.384,121.686 122.690,121.807 122.801 C 122.023 123.000,129.864 129.437,132.228 131.356 C 132.899 131.900,133.544 132.435,133.661 132.544 C 133.779 132.653,135.122 133.754,136.646 134.990 C 140.113 137.802,139.608 137.390,142.188 139.518 C 143.397 140.515,144.816 141.674,145.342 142.094 C 146.391 142.932,146.644 143.139,147.942 144.224 C 148.427 144.628,149.099 145.174,149.437 145.437 C 149.774 145.700,150.196 146.044,150.373 146.202 C 150.743 146.531,158.897 153.223,160.154 154.228 C 160.613 154.596,161.346 155.198,161.781 155.566 C 162.728 156.366,163.798 157.246,165.600 158.705 C 166.335 159.301,167.073 159.900,167.239 160.036 C 167.404 160.172,169.081 161.550,170.965 163.098 C 172.849 164.647,174.939 166.359,175.609 166.903 C 176.279 167.448,177.400 168.366,178.100 168.944 C 178.800 169.522,179.704 170.253,180.109 170.569 C 180.515 170.884,180.942 171.232,181.059 171.343 C 181.266 171.539,188.129 177.178,189.769 178.500 C 190.225 178.868,191.467 179.884,192.528 180.758 C 193.589 181.632,194.587 182.451,194.744 182.577 C 194.902 182.704,195.848 183.478,196.847 184.296 C 197.845 185.115,198.813 185.909,198.998 186.059 C 199.182 186.210,200.352 187.172,201.598 188.198 C 202.843 189.223,204.444 190.535,205.155 191.113 C 205.866 191.691,207.319 192.880,208.384 193.754 C 209.449 194.628,210.463 195.459,210.638 195.601 C 210.814 195.743,212.668 197.264,214.759 198.981 C 216.850 200.698,218.936 202.403,219.393 202.771 C 219.851 203.139,220.319 203.532,220.433 203.644 C 220.547 203.756,221.053 204.164,221.558 204.549 C 222.064 204.934,222.591 205.358,222.732 205.491 C 222.872 205.624,223.147 205.862,223.343 206.020 C 223.538 206.178,225.133 207.489,226.886 208.935 C 230.616 212.009,230.012 211.804,231.592 210.534 C 243.060 201.320,259.377 199.417,272.684 205.742 C 274.645 206.675,278.173 208.703,279.008 209.380 C 279.175 209.515,279.914 210.113,280.650 210.708 C 282.378 212.106,284.790 214.437,285.997 215.875 C 286.520 216.499,287.000 217.052,287.063 217.105 C 287.793 217.710,290.979 223.051,291.965 225.323 C 296.502 235.776,296.557 246.023,292.136 257.143 C 288.349 266.669,278.596 275.503,268.184 278.838 C 234.907 289.498,205.393 255.065,220.877 223.648 C 221.357 222.674,221.715 221.850,221.673 221.817 C 220.914 221.227,217.556 218.508,217.487 218.427 C 217.434 218.366,215.886 217.092,214.047 215.595 C 212.207 214.098,210.530 212.730,210.320 212.556 C 210.110 212.381,208.691 211.221,207.167 209.978 C 205.643 208.734,204.223 207.572,204.011 207.394 C 203.225 206.733,200.535 204.521,199.414 203.614 C 196.686 201.405,192.708 198.148,192.355 197.834 C 192.145 197.648,191.070 196.768,189.967 195.881 C 188.863 194.993,187.917 194.217,187.864 194.156 C 187.812 194.095,186.264 192.820,184.424 191.323 C 182.585 189.825,180.852 188.413,180.573 188.185 C 180.295 187.956,179.791 187.554,179.455 187.291 C 179.118 187.028,178.730 186.708,178.593 186.579 C 178.456 186.449,177.627 185.756,176.750 185.038 C 173.613 182.468,165.212 175.600,164.931 175.376 C 164.773 175.250,163.827 174.472,162.828 173.648 C 160.377 171.625,159.770 171.126,156.945 168.823 C 155.609 167.733,154.390 166.733,154.238 166.602 C 154.086 166.471,152.925 165.524,151.658 164.497 C 150.391 163.470,149.183 162.476,148.973 162.289 C 148.763 162.101,147.688 161.221,146.584 160.334 C 145.480 159.446,144.534 158.671,144.482 158.612 C 144.429 158.553,143.483 157.780,142.379 156.894 C 141.276 156.009,140.158 155.086,139.895 154.844 C 139.632 154.601,138.947 154.041,138.373 153.599 C 137.798 153.157,137.193 152.663,137.028 152.502 C 136.863 152.340,136.387 151.954,135.970 151.643 C 135.554 151.332,135.170 151.027,135.117 150.966 C 134.943 150.763,127.401 144.576,126.039 143.518 C 125.303 142.947,124.615 142.383,124.510 142.265 C 124.325 142.057,113.461 133.162,111.869 131.915 C 111.078 131.296,110.743 131.167,110.623 131.438 C 110.555 131.591,107.717 133.699,106.224 134.706 C 105.475 135.210,101.210 137.469,100.659 137.653 C 100.507 137.703,104.136 146.038,106.836 151.839 C 107.032 152.260,108.065 154.582,109.133 157.000 C 110.200 159.417,111.151 161.477,111.246 161.577 C 111.341 161.677,111.419 161.862,111.419 161.988 C 111.419 162.114,111.754 162.936,112.164 163.813 C 112.574 164.691,113.617 167.000,114.481 168.944 C 115.345 170.889,116.287 172.996,116.576 173.626 C 117.124 174.825,118.663 178.266,120.251 181.844 C 120.764 183.000,121.346 184.290,121.544 184.711 C 121.742 185.131,122.771 187.435,123.830 189.831 C 124.890 192.227,126.007 194.721,126.313 195.373 C 126.619 196.026,127.921 198.925,129.206 201.816 C 130.492 204.706,131.779 207.587,132.066 208.218 C 132.354 208.849,133.276 210.913,134.117 212.805 C 134.957 214.697,135.901 216.804,136.214 217.487 C 136.528 218.170,137.322 219.933,137.979 221.405 C 138.635 222.876,140.229 226.445,141.519 229.336 C 145.152 237.474,151.267 251.122,151.708 252.078 C 151.927 252.551,153.021 255.002,154.139 257.525 C 155.258 260.048,156.251 262.194,156.347 262.293 C 156.443 262.393,156.522 262.578,156.522 262.705 C 156.522 262.831,156.856 263.652,157.264 264.530 C 158.480 267.144,159.962 270.436,159.962 270.522 C 159.962 270.566,160.253 271.229,160.610 271.995 C 160.967 272.761,161.552 274.048,161.911 274.855 L 162.563 276.322 163.413 275.940 C 170.611 272.703,179.689 272.989,187.004 276.683 C 191.094 278.748,195.113 282.387,197.594 286.272 C 200.696 291.129,202.108 296.181,201.976 301.952 L 201.911 304.808 203.249 305.191 C 203.985 305.402,205.146 305.746,205.829 305.956 C 207.518 306.475,209.383 307.041,214.333 308.538 C 216.646 309.238,219.355 310.061,220.354 310.368 C 222.997 311.180,230.848 313.550,231.629 313.771 C 231.997 313.875,233.416 314.305,234.783 314.727 C 236.149 315.149,237.568 315.578,237.936 315.682 C 238.304 315.785,240.282 316.386,242.332 317.017 C 244.381 317.648,247.821 318.696,249.976 319.347 C 254.596 320.742,259.269 322.159,262.590 323.174 C 263.903 323.575,266.699 324.423,268.801 325.059 C 273.609 326.512,286.116 330.297,292.858 332.340 C 298.604 334.082,298.255 334.056,298.894 332.795 C 299.734 331.138,301.966 328.277,303.816 326.486 C 307.756 322.672,312.376 320.299,318.299 319.047 C 325.099 317.608,334.416 319.983,340.086 324.598 C 340.612 325.026,341.186 325.488,341.362 325.624 C 341.640 325.839,342.171 325.515,345.442 323.136 C 347.510 321.632,349.347 320.315,349.523 320.210 C 349.700 320.105,351.036 319.159,352.493 318.108 C 353.949 317.057,355.495 315.949,355.927 315.646 C 357.702 314.402,361.315 311.802,361.526 311.617 C 361.651 311.508,362.769 310.705,364.011 309.832 C 366.665 307.965,372.682 303.670,372.957 303.445 C 373.063 303.359,373.966 302.713,374.964 302.010 C 375.963 301.306,376.866 300.662,376.971 300.579 C 377.076 300.495,378.237 299.660,379.551 298.722 C 380.865 297.785,382.214 296.818,382.550 296.574 C 382.886 296.330,384.623 295.098,386.411 293.837 C 388.199 292.575,389.666 291.448,389.671 291.331 C 389.676 291.214,389.343 290.397,388.931 289.515 C 385.860 282.940,387.237 274.680,392.272 269.478 C 393.150 268.570,393.253 268.387,393.058 268.069 C 392.934 267.868,392.747 267.560,392.642 267.384 C 391.952 266.233,391.098 264.969,390.973 264.915 C 390.893 264.880,390.827 264.776,390.827 264.684 C 390.827 264.592,390.160 263.503,389.345 262.263 C 388.531 261.024,387.829 259.924,387.785 259.820 C 387.741 259.715,387.057 258.640,386.264 257.431 C 385.471 256.221,384.727 255.060,384.611 254.849 C 384.341 254.363,383.312 252.778,383.184 252.652 C 383.130 252.599,382.985 252.384,382.862 252.174 C 382.738 251.964,382.093 250.945,381.428 249.910 C 380.764 248.875,380.131 247.874,380.022 247.686 C 379.913 247.497,379.601 247.011,379.329 246.605 C 378.324 245.105,376.969 242.995,376.892 242.809 C 376.848 242.704,376.196 241.672,375.443 240.516 C 374.689 239.360,373.610 237.683,373.045 236.789 C 372.479 235.896,371.966 235.122,371.905 235.069 C 371.844 235.017,371.595 234.630,371.352 234.209 C 371.110 233.789,370.038 232.086,368.972 230.425 C 367.906 228.765,366.418 226.443,365.666 225.265 C 364.915 224.088,364.223 223.039,364.130 222.934 C 364.037 222.828,363.624 222.183,363.213 221.500 C 362.803 220.817,361.820 219.269,361.030 218.060 C 360.240 216.851,359.504 215.714,359.395 215.533 C 358.514 214.069,357.147 211.945,357.086 211.945 C 357.045 211.945,356.380 212.151,355.608 212.403 C 342.686 216.621,329.598 205.598,331.690 192.260 C 334.572 173.887,359.638 170.856,366.856 188.008 L 367.600 189.775 383.705 189.775 L 399.809 189.775 399.809 191.878 L 399.809 193.980 384.071 193.980 L 368.333 193.980 368.209 195.939 C 367.929 200.341,366.212 204.395,363.362 207.383 C 362.761 208.013,362.348 208.604,362.405 208.753 C 362.499 208.997,376.156 230.391,376.886 231.438 C 377.069 231.701,378.229 233.507,379.463 235.452 C 380.698 237.396,382.835 240.735,384.213 242.872 C 385.590 245.009,386.804 246.904,386.909 247.084 C 387.495 248.089,388.451 249.507,388.578 249.562 C 388.658 249.597,388.724 249.708,388.724 249.809 C 388.724 249.909,388.887 250.225,389.086 250.509 C 389.284 250.794,389.991 251.887,390.656 252.938 C 391.321 253.989,391.917 254.892,391.981 254.945 C 392.045 254.998,392.149 255.170,392.213 255.327 C 392.278 255.485,393.362 257.205,394.624 259.150 C 395.886 261.094,397.246 263.224,397.647 263.884 C 398.195 264.785,398.459 265.058,398.710 264.983 C 398.894 264.928,399.216 264.830,399.427 264.765 C 399.807 264.648,399.809 264.735,399.809 282.052 L 399.809 299.457 399.074 299.198 C 397.458 298.628,394.580 296.883,393.685 295.931 C 393.083 295.289,393.058 295.297,391.112 296.704 C 390.167 297.388,388.883 298.302,388.258 298.737 C 387.634 299.171,387.032 299.601,386.921 299.692 C 386.809 299.784,384.826 301.207,382.513 302.855 C 380.201 304.503,378.266 305.900,378.213 305.960 C 378.161 306.019,377.615 306.407,377.000 306.821 C 375.909 307.555,373.344 309.413,372.953 309.751 C 372.845 309.844,372.501 310.085,372.188 310.286 C 371.875 310.487,371.534 310.717,371.429 310.797 C 371.323 310.877,369.474 312.201,367.320 313.740 C 365.165 315.278,363.187 316.700,362.924 316.899 C 362.661 317.099,361.328 318.048,359.962 319.009 C 358.595 319.970,357.253 320.934,356.978 321.152 C 356.704 321.370,356.317 321.653,356.118 321.782 C 355.920 321.910,353.994 323.278,351.839 324.822 C 349.685 326.366,347.363 328.014,346.679 328.486 C 345.996 328.958,345.361 329.411,345.268 329.494 C 345.175 329.578,345.482 330.228,345.954 330.948 C 350.738 338.237,351.930 347.008,349.234 355.088 C 348.561 357.107,346.465 361.373,346.058 361.554 C 345.979 361.589,345.915 361.733,345.915 361.873 C 345.915 362.013,345.850 362.156,345.772 362.191 C 345.693 362.226,345.267 362.728,344.825 363.306 C 343.475 365.074,338.575 369.613,338.017 369.613 C 337.976 369.613,337.221 370.025,336.339 370.529 C 324.938 377.038,309.889 374.117,301.600 363.784 C 301.010 363.048,300.481 362.403,300.425 362.351 C 300.142 362.086,298.627 359.365,297.871 357.764 C 296.132 354.080,295.379 350.489,295.401 345.972 L 295.415 342.876 293.288 342.205 C 292.118 341.837,290.430 341.320,289.537 341.058 C 286.892 340.282,276.884 337.243,275.012 336.648 C 273.951 336.310,249.183 328.823,248.256 328.559 C 247.596 328.372,244.418 327.403,240.325 326.142 C 239.169 325.786,237.707 325.349,237.076 325.172 C 236.445 324.994,235.585 324.733,235.165 324.592 C 232.887 323.825,199.590 313.808,199.318 313.808 C 199.140 313.808,198.891 314.059,198.764 314.366 C 198.547 314.890,197.438 316.731,197.085 317.152 C 196.997 317.258,196.576 317.817,196.148 318.395 C 195.126 319.778,192.813 322.018,191.075 323.310 C 190.308 323.879,189.544 324.447,189.379 324.571 C 188.529 325.208,185.737 326.582,183.946 327.244 C 176.422 330.024,167.740 329.347,160.971 325.452 C 160.070 324.934,159.304 324.510,159.268 324.510 C 159.231 324.510,159.050 324.388,158.865 324.238 C 158.680 324.088,157.878 323.449,157.083 322.817 C 154.699 320.925,151.888 317.696,150.568 315.337 C 150.304 314.864,149.917 314.176,149.708 313.808 C 144.693 304.974,146.215 292.106,153.295 283.485 C 154.468 282.055,154.534 281.908,154.240 281.364 C 154.141 281.181,153.703 280.215,153.266 279.216 C 152.829 278.218,152.273 276.971,152.031 276.445 C 151.789 275.920,151.312 274.845,150.971 274.056 C 150.630 273.268,149.496 270.731,148.450 268.419 C 147.405 266.106,146.434 263.956,146.293 263.641 C 140.852 251.489,139.309 248.036,138.650 246.536 C 138.211 245.538,137.632 244.247,137.363 243.669 C 137.094 243.091,136.576 241.930,136.211 241.089 C 135.845 240.248,135.288 239.001,134.972 238.318 C 134.154 236.551,133.033 234.050,131.676 230.970 C 131.030 229.503,129.744 226.622,128.818 224.567 C 127.893 222.513,125.867 217.993,124.316 214.525 C 122.766 211.056,121.257 207.702,120.963 207.071 C 120.049 205.107,118.681 202.026,118.681 201.930 C 118.681 201.879,118.345 201.123,117.934 200.250 C 117.524 199.377,116.889 197.974,116.525 197.133 C 116.160 196.292,115.603 195.045,115.287 194.362 C 114.971 193.679,114.368 192.346,113.946 191.400 C 110.556 183.801,107.220 176.346,105.007 171.429 C 103.565 168.223,102.103 164.944,101.758 164.142 C 101.414 163.340,101.042 162.523,100.933 162.326 C 100.823 162.130,100.267 160.893,99.697 159.580 C 99.127 158.266,98.402 156.632,98.085 155.948 C 97.425 154.524,94.730 148.507,93.548 145.819 C 93.109 144.821,92.528 143.531,92.258 142.953 C 91.987 142.375,91.629 141.567,91.462 141.158 L 91.158 140.414 89.806 140.539 C 81.395 141.321,74.544 140.097,67.434 136.543 C 65.809 135.731,63.125 134.165,62.517 133.674 C 62.347 133.537,61.529 132.892,60.699 132.240 C 45.225 120.091,41.233 98.037,51.442 81.102 C 59.512 67.717,74.211 60.559,90.014 62.319 M399.737 107.733 C 399.623 107.846,396.619 108.954,394.154 109.792 C 393.007 110.182,391.295 110.785,390.349 111.133 C 389.403 111.480,386.909 112.369,384.806 113.107 C 382.704 113.845,380.511 114.623,379.933 114.836 C 379.355 115.049,375.915 116.268,372.289 117.544 C 368.662 118.821,363.674 120.581,361.204 121.457 C 351.943 124.739,338.151 129.638,337.506 129.873 C 336.934 130.083,336.844 130.196,336.888 130.659 C 337.377 135.874,336.332 141.446,334.205 144.959 C 328.839 153.823,319.205 158.130,309.699 155.913 C 292.347 151.868,286.163 130.580,298.717 118.108 C 307.354 109.527,321.155 109.303,329.946 117.601 C 330.754 118.364,332.990 120.946,333.133 121.282 C 333.522 122.194,334.201 123.061,334.448 122.963 C 334.606 122.901,336.777 122.127,339.274 121.243 C 341.770 120.360,345.877 118.906,348.399 118.012 C 350.922 117.119,355.029 115.665,357.525 114.782 C 360.022 113.899,366.235 111.697,371.333 109.889 C 376.431 108.081,382.021 106.103,383.755 105.494 C 385.490 104.885,388.113 103.956,389.584 103.430 C 391.056 102.904,393.937 101.880,395.987 101.155 L 399.713 99.837 399.765 103.745 C 399.794 105.894,399.781 107.689,399.737 107.733 M-0.000 246.402 C -0.000 261.270,0.003 261.400,0.408 262.373 C 0.915 263.594,-1.408 263.869,15.576 260.582 C 23.322 259.083,32.031 257.402,37.840 256.283 C 51.603 253.633,53.932 253.182,55.614 252.847 C 56.613 252.647,59.290 252.127,61.563 251.691 L 65.697 250.897 65.829 249.552 C 65.902 248.813,65.891 248.144,65.805 248.066 C 65.718 247.989,61.304 246.842,55.996 245.518 C 50.688 244.195,41.228 241.822,34.974 240.245 C 28.720 238.668,18.442 236.079,12.136 234.493 C 5.829 232.906,0.518 231.564,0.334 231.510 C 0.018 231.418,-0.000 232.216,-0.000 246.402 M182.322 382.901 C 178.569 383.558,179.939 383.337,163.975 385.855 C 157.301 386.908,151.624 387.805,151.362 387.849 C 151.099 387.893,150.282 388.026,149.546 388.145 C 147.329 388.504,119.430 392.911,115.528 393.519 C 113.531 393.830,110.344 394.341,108.447 394.653 C 106.549 394.966,104.817 395.222,104.597 395.222 C 104.118 395.222,103.966 395.560,103.966 396.628 C 103.966 397.068,103.805 398.007,103.609 398.714 L 103.252 400.000 140.662 400.000 L 178.072 400.000 178.554 399.379 C 178.818 399.037,179.409 398.370,179.866 397.895 C 180.800 396.926,184.523 392.902,185.060 392.281 C 185.252 392.059,185.875 391.391,186.446 390.797 C 187.682 389.508,187.669 389.622,186.737 388.221 C 185.922 386.996,184.616 384.459,184.218 383.325 C 184.079 382.931,183.918 382.618,183.860 382.629 C 183.803 382.641,183.110 382.763,182.322 382.901 M224.749 389.060 C 218.756 398.027,205.405 401.112,195.318 395.861 L 193.311 394.817 192.112 396.118 C 191.453 396.834,190.391 398.000,189.752 398.710 L 188.589 400.000 218.852 400.000 L 249.115 400.000 247.204 399.072 C 246.154 398.561,243.531 397.282,241.376 396.229 C 239.221 395.176,235.781 393.496,233.731 392.497 C 231.682 391.498,228.941 390.154,227.641 389.511 C 224.847 388.129,225.322 388.203,224.749 389.060"/><path id="path1" fill="#901414" fill-rule="evenodd" stroke="none"/></g></svg>