<svg xmlns="http://www.w3.org/2000/svg" xmlns:xlink="http://www.w3.org/1999/xlink" width="23" height="19" version="1.1" viewBox="0 0 23 19"><path style="stroke:none;fill-rule:evenodd;fill:#000;fill-opacity:1" d="M 9.835938 1.023438 C 9.613281 1.050781 9.398438 1.109375 9.355469 1.15625 C 9.257812 1.253906 9.441406 1.855469 9.636719 2.074219 C 9.792969 2.253906 9.730469 2.320312 9.238281 2.492188 C 9.03125 2.5625 8.824219 2.652344 8.78125 2.6875 C 8.738281 2.71875 8.605469 2.773438 8.484375 2.804688 C 7.511719 3.042969 5.671875 5.160156 5.671875 6.042969 C 5.671875 6.109375 5.644531 6.183594 5.605469 6.207031 C 5.566406 6.234375 5.519531 6.351562 5.496094 6.472656 C 5.476562 6.589844 5.398438 6.902344 5.324219 7.164062 C 5.25 7.425781 5.183594 7.691406 5.175781 7.757812 C 5.164062 7.824219 5.140625 7.929688 5.117188 7.996094 C 5.003906 8.304688 4.996094 8.53125 5.078125 8.773438 C 5.160156 9.003906 5.15625 9.046875 5.039062 9.113281 C 4.902344 9.191406 4.851562 9.5 4.972656 9.5 C 5.082031 9.5 5.140625 9.84375 5.046875 9.933594 C 4.992188 9.988281 4.953125 9.988281 4.933594 9.925781 C 4.839844 9.671875 4.6875 9.539062 4.589844 9.636719 C 4.476562 9.753906 4.601562 10.042969 4.925781 10.410156 C 5.136719 10.648438 5.1875 10.765625 5.078125 10.765625 C 4.980469 10.765625 4.558594 10.34375 4.503906 10.191406 C 4.433594 10.003906 4.238281 10.019531 4.179688 10.210938 C 4.152344 10.300781 4.085938 10.371094 4.03125 10.371094 C 3.859375 10.371094 3.730469 10.722656 3.828125 10.917969 C 3.917969 11.089844 3.882812 11.242188 3.753906 11.242188 C 3.710938 11.242188 3.679688 11.171875 3.679688 11.082031 C 3.679688 10.84375 3.550781 10.894531 3.460938 11.164062 C 3.417969 11.296875 3.328125 11.460938 3.261719 11.527344 C 3.101562 11.691406 3.019531 12.054688 3.132812 12.09375 C 3.179688 12.113281 3.21875 12.171875 3.21875 12.230469 C 3.21875 12.289062 3.261719 12.351562 3.316406 12.371094 C 3.476562 12.429688 3.339844 12.503906 3.160156 12.457031 C 3.058594 12.429688 2.988281 12.347656 2.988281 12.261719 C 2.988281 12.179688 2.957031 12.113281 2.914062 12.113281 C 2.835938 12.113281 2.808594 12.265625 2.832031 12.527344 C 2.839844 12.605469 2.796875 12.6875 2.734375 12.710938 C 2.582031 12.773438 2.449219 13.390625 2.464844 13.953125 C 2.480469 14.371094 2.550781 14.539062 2.625 14.316406 C 2.65625 14.214844 3.066406 14.453125 3.066406 14.574219 C 3.066406 14.699219 2.847656 14.648438 2.769531 14.507812 C 2.710938 14.402344 2.671875 14.390625 2.601562 14.460938 C 2.480469 14.585938 2.644531 15.09375 2.835938 15.199219 C 2.914062 15.242188 2.992188 15.378906 3.003906 15.496094 C 3.019531 15.632812 3.09375 15.746094 3.199219 15.792969 C 3.296875 15.835938 3.375 15.910156 3.375 15.957031 C 3.375 16.09375 3.738281 16.410156 3.828125 16.351562 C 3.871094 16.324219 3.910156 16.351562 3.910156 16.417969 C 3.910156 16.484375 3.949219 16.5625 4 16.59375 C 4.058594 16.632812 4.074219 16.597656 4.042969 16.480469 C 4.015625 16.363281 4.035156 16.308594 4.109375 16.308594 C 4.1875 16.308594 4.207031 16.363281 4.171875 16.507812 C 4.136719 16.65625 4.152344 16.703125 4.246094 16.703125 C 4.316406 16.703125 4.371094 16.734375 4.371094 16.773438 C 4.371094 17.042969 6.46875 17.800781 7.820312 18.023438 C 9.175781 18.246094 11.488281 17.882812 12.917969 17.222656 C 13.128906 17.125 13.449219 16.980469 13.628906 16.902344 C 13.808594 16.824219 13.953125 16.730469 13.953125 16.691406 C 13.953125 16.65625 14.023438 16.625 14.105469 16.625 C 14.191406 16.625 14.261719 16.597656 14.261719 16.5625 C 14.261719 16.445312 14.703125 16.21875 14.738281 16.320312 C 14.753906 16.375 14.808594 16.390625 14.867188 16.351562 C 14.941406 16.304688 14.941406 16.273438 14.878906 16.230469 C 14.734375 16.140625 15.316406 15.796875 15.945312 15.601562 C 16.261719 15.503906 16.652344 15.339844 16.808594 15.234375 C 16.96875 15.125 17.097656 15.074219 17.097656 15.117188 C 17.097656 15.226562 16.453125 15.554688 15.9375 15.710938 C 15.703125 15.78125 15.445312 15.886719 15.363281 15.949219 C 15.203125 16.070312 15.566406 15.972656 16.429688 15.65625 C 17.367188 15.316406 19.242188 13.324219 19.242188 12.675781 C 19.242188 12.417969 19.375 12.058594 19.53125 11.890625 C 19.582031 11.832031 19.625 11.71875 19.625 11.636719 C 19.625 11.554688 19.671875 11.445312 19.726562 11.386719 C 19.914062 11.191406 19.925781 10.105469 19.742188 9.898438 C 19.679688 9.824219 19.625 9.730469 19.625 9.683594 C 19.625 9.640625 19.484375 9.449219 19.3125 9.257812 C 19.019531 8.925781 19 8.875 18.964844 8.3125 C 18.902344 7.316406 18.480469 6.042969 18.046875 5.535156 C 17.988281 5.464844 17.941406 5.375 17.941406 5.332031 C 17.941406 5.289062 17.714844 5.027344 17.441406 4.757812 C 16.898438 4.214844 16.867188 4.152344 17.097656 4.078125 C 17.378906 3.984375 17.339844 3.953125 16.328125 3.4375 C 16.097656 3.316406 15.804688 3.140625 15.679688 3.042969 C 15.453125 2.867188 14.941406 2.71875 14.277344 2.636719 C 14.054688 2.609375 13.953125 2.558594 13.953125 2.472656 C 13.953125 2.40625 13.882812 2.277344 13.800781 2.183594 C 13.71875 2.09375 13.5625 1.921875 13.460938 1.800781 C 13.277344 1.59375 13.238281 1.582031 12.570312 1.582031 C 12.015625 1.582031 11.824219 1.550781 11.664062 1.4375 C 11.390625 1.242188 10.605469 0.949219 10.402344 0.960938 C 10.308594 0.96875 10.054688 0.996094 9.835938 1.023438 M 11.039062 2.511719 C 11.03125 2.625 10.730469 2.953125 10.679688 2.902344 C 10.601562 2.816406 10.796875 2.453125 10.921875 2.453125 C 10.988281 2.453125 11.039062 2.480469 11.039062 2.511719 M 13.875 2.613281 C 13.875 2.65625 13.800781 2.691406 13.703125 2.691406 C 13.566406 2.6875 13.554688 2.675781 13.648438 2.613281 C 13.796875 2.511719 13.875 2.511719 13.875 2.613281 M 10.320312 2.808594 C 10.292969 2.875 10.253906 2.984375 10.226562 3.046875 C 10.203125 3.113281 10.21875 3.167969 10.265625 3.167969 C 10.3125 3.167969 10.351562 3.203125 10.351562 3.246094 C 10.351562 3.289062 10.265625 3.324219 10.160156 3.324219 C 9.945312 3.324219 9.878906 2.972656 10.058594 2.785156 C 10.191406 2.648438 10.375 2.667969 10.320312 2.808594 M 13.15625 2.890625 C 13.183594 3 13.234375 3.085938 13.273438 3.085938 C 13.308594 3.085938 13.339844 3.140625 13.339844 3.207031 C 13.339844 3.332031 13.269531 3.351562 13.078125 3.277344 C 12.996094 3.242188 12.972656 3.171875 13.003906 3.039062 C 13.03125 2.925781 13.015625 2.851562 12.964844 2.851562 C 12.917969 2.851562 12.878906 2.8125 12.878906 2.769531 C 12.878906 2.601562 13.109375 2.703125 13.15625 2.890625 M 12.648438 2.890625 C 12.648438 2.953125 12.703125 3.007812 12.765625 3.007812 C 12.828125 3.007812 12.878906 3.0625 12.878906 3.132812 C 12.878906 3.367188 12.539062 3.234375 12.511719 2.988281 C 12.496094 2.867188 12.523438 2.769531 12.566406 2.769531 C 12.613281 2.769531 12.648438 2.824219 12.648438 2.890625 M 9.738281 2.964844 C 9.738281 3.027344 9.703125 3.101562 9.660156 3.128906 C 9.449219 3.261719 9.582031 3.5625 9.851562 3.5625 C 10.140625 3.5625 10.210938 3.679688 9.96875 3.757812 C 9.683594 3.851562 9.265625 3.71875 9.316406 3.554688 C 9.34375 3.472656 9.332031 3.402344 9.292969 3.402344 C 9.257812 3.402344 9.226562 3.351562 9.226562 3.285156 C 9.226562 3.21875 9.269531 3.167969 9.324219 3.167969 C 9.378906 3.167969 9.460938 3.09375 9.507812 3.007812 C 9.601562 2.824219 9.738281 2.796875 9.738281 2.964844 M 14.242188 2.996094 C 14.265625 3.0625 14.226562 3.09375 14.140625 3.074219 C 14.066406 3.058594 13.988281 3 13.96875 2.941406 C 13.949219 2.875 13.984375 2.84375 14.074219 2.863281 C 14.148438 2.878906 14.222656 2.9375 14.242188 2.996094 M 14.625 2.992188 C 14.640625 3.046875 14.601562 3.085938 14.535156 3.085938 C 14.46875 3.085938 14.414062 3.03125 14.414062 2.960938 C 14.414062 2.824219 14.578125 2.847656 14.625 2.992188 M 15.257812 3.007812 C 15.257812 3.050781 15.152344 3.085938 15.027344 3.085938 C 14.898438 3.085938 14.796875 3.050781 14.796875 3.007812 C 14.796875 2.964844 14.898438 2.929688 15.027344 2.929688 C 15.152344 2.929688 15.257812 2.964844 15.257812 3.007812 M 9.144531 3.1875 C 9.179688 3.292969 8.859375 3.640625 8.726562 3.640625 C 8.527344 3.640625 9.074219 3.972656 9.332031 4.007812 C 9.492188 4.03125 9.691406 4.078125 9.773438 4.117188 C 9.859375 4.152344 10.058594 4.203125 10.214844 4.222656 C 10.375 4.246094 10.558594 4.320312 10.628906 4.390625 C 10.695312 4.460938 10.8125 4.496094 10.886719 4.472656 C 10.964844 4.449219 11.050781 4.464844 11.078125 4.507812 C 11.105469 4.554688 11.214844 4.570312 11.320312 4.542969 C 11.484375 4.5 11.511719 4.515625 11.484375 4.640625 C 11.449219 4.820312 10.753906 4.835938 10.648438 4.65625 C 10.601562 4.578125 10.550781 4.574219 10.453125 4.636719 C 10.195312 4.804688 10.257812 4.902344 10.652344 4.957031 C 10.921875 4.992188 11.082031 5.058594 11.15625 5.171875 C 11.246094 5.300781 11.289062 5.316406 11.359375 5.242188 C 11.5 5.097656 11.652344 5.125 11.652344 5.296875 C 11.652344 5.492188 11.425781 5.578125 11.285156 5.433594 C 11.199219 5.34375 11.125 5.335938 10.972656 5.394531 C 10.835938 5.449219 10.765625 5.445312 10.746094 5.386719 C 10.734375 5.34375 10.660156 5.304688 10.582031 5.304688 C 10.507812 5.304688 10.40625 5.253906 10.355469 5.195312 C 10.269531 5.082031 9.921875 4.980469 9.609375 4.972656 C 9.515625 4.972656 9.421875 4.921875 9.398438 4.859375 C 9.375 4.800781 9.273438 4.75 9.171875 4.75 C 8.824219 4.75 8.511719 4.652344 8.511719 4.542969 C 8.511719 4.480469 8.429688 4.433594 8.328125 4.433594 C 8.226562 4.433594 8.121094 4.378906 8.097656 4.308594 C 8.042969 4.164062 8.117188 3.800781 8.199219 3.800781 C 8.230469 3.800781 8.296875 3.707031 8.347656 3.59375 C 8.421875 3.425781 8.472656 3.398438 8.628906 3.4375 C 8.78125 3.476562 8.835938 3.449219 8.90625 3.289062 C 9.003906 3.070312 9.09375 3.03125 9.144531 3.1875 M 12.144531 3.136719 C 12.316406 3.203125 12.296875 3.324219 12.113281 3.324219 C 12.027344 3.324219 11.960938 3.273438 11.960938 3.207031 C 11.960938 3.074219 11.972656 3.066406 12.144531 3.136719 M 14.628906 3.457031 C 14.59375 3.65625 14.414062 3.683594 14.414062 3.488281 C 14.414062 3.394531 14.460938 3.324219 14.535156 3.324219 C 14.605469 3.324219 14.644531 3.378906 14.628906 3.457031 M 12.4375 3.515625 C 12.625 3.660156 12.605469 3.722656 12.378906 3.722656 C 12.273438 3.722656 12.125 3.761719 12.046875 3.8125 C 11.871094 3.925781 11.652344 3.851562 11.652344 3.675781 C 11.652344 3.570312 11.703125 3.554688 11.921875 3.597656 C 12.132812 3.636719 12.191406 3.625 12.191406 3.527344 C 12.191406 3.378906 12.261719 3.375 12.4375 3.515625 M 14.261719 3.640625 C 14.261719 3.683594 14.207031 3.722656 14.144531 3.722656 C 14.082031 3.722656 14.03125 3.683594 14.03125 3.640625 C 14.03125 3.597656 14.082031 3.5625 14.144531 3.5625 C 14.207031 3.5625 14.261719 3.597656 14.261719 3.640625 M 8.050781 3.75 C 8.050781 3.859375 7.800781 4.363281 7.695312 4.472656 C 7.523438 4.652344 7.550781 4.664062 8.738281 4.988281 C 9.546875 5.210938 9.738281 5.289062 9.738281 5.40625 C 9.738281 5.585938 9.539062 5.667969 9.394531 5.542969 C 9.332031 5.492188 9.21875 5.472656 9.136719 5.496094 C 9.039062 5.53125 8.972656 5.503906 8.941406 5.414062 C 8.902344 5.316406 8.832031 5.296875 8.664062 5.332031 C 8.492188 5.367188 8.433594 5.351562 8.433594 5.261719 C 8.433594 5.191406 8.359375 5.144531 8.242188 5.144531 C 8.136719 5.144531 8.050781 5.109375 8.050781 5.066406 C 8.050781 5.023438 7.984375 4.988281 7.902344 4.988281 C 7.414062 4.988281 7.382812 4.410156 7.839844 3.820312 C 7.910156 3.726562 8.050781 3.683594 8.050781 3.75 M 13.953125 3.839844 C 13.953125 3.90625 13.917969 3.957031 13.875 3.957031 C 13.835938 3.957031 13.800781 3.90625 13.800781 3.839844 C 13.800781 3.773438 13.835938 3.722656 13.875 3.722656 C 13.917969 3.722656 13.953125 3.773438 13.953125 3.839844 M 8.359375 3.953125 C 8.253906 4.15625 8.257812 4.195312 8.394531 4.195312 C 8.457031 4.195312 8.511719 4.230469 8.511719 4.273438 C 8.511719 4.320312 8.59375 4.355469 8.695312 4.355469 C 8.800781 4.355469 8.902344 4.386719 8.925781 4.421875 C 8.949219 4.460938 9.128906 4.511719 9.324219 4.542969 C 9.523438 4.570312 9.726562 4.628906 9.777344 4.675781 C 9.882812 4.761719 10.273438 4.695312 10.273438 4.589844 C 10.273438 4.5 10.058594 4.429688 9.933594 4.480469 C 9.871094 4.507812 9.78125 4.457031 9.730469 4.371094 C 9.652344 4.246094 9.574219 4.226562 9.300781 4.257812 C 9.003906 4.292969 8.957031 4.277344 8.917969 4.128906 C 8.894531 4.03125 8.8125 3.957031 8.730469 3.957031 C 8.652344 3.957031 8.585938 3.921875 8.585938 3.878906 C 8.585938 3.746094 8.441406 3.792969 8.359375 3.953125 M 10.753906 3.933594 C 10.984375 3.980469 11.042969 4.117188 10.828125 4.117188 C 10.753906 4.117188 10.566406 4.078125 10.40625 4.035156 C 10.074219 3.9375 10.003906 3.75 10.332031 3.835938 C 10.445312 3.863281 10.636719 3.910156 10.753906 3.933594 M 15.488281 3.917969 C 15.488281 3.988281 15.414062 4.039062 15.3125 4.039062 C 15.21875 4.039062 15.0625 4.0625 14.96875 4.085938 C 14.84375 4.121094 14.796875 4.101562 14.796875 4.011719 C 14.796875 3.882812 14.933594 3.824219 15.277344 3.808594 C 15.417969 3.804688 15.488281 3.839844 15.488281 3.917969 M 16.003906 3.851562 C 16.261719 3.921875 16.210938 4.003906 15.910156 4.015625 C 15.726562 4.019531 15.640625 3.988281 15.640625 3.910156 C 15.640625 3.789062 15.734375 3.773438 16.003906 3.851562 M 12.605469 4.007812 C 12.816406 4.089844 12.699219 4.355469 12.453125 4.355469 C 12.433594 4.355469 12.421875 4.265625 12.421875 4.15625 C 12.421875 3.941406 12.425781 3.933594 12.605469 4.007812 M 12.265625 4.164062 C 12.265625 4.328125 11.402344 4.414062 11.191406 4.273438 C 11.09375 4.207031 11.09375 4.1875 11.1875 4.121094 C 11.347656 4.015625 12.265625 4.054688 12.265625 4.164062 M 14.71875 4.109375 C 14.71875 4.207031 14.503906 4.28125 14.453125 4.199219 C 14.429688 4.160156 14.457031 4.113281 14.507812 4.089844 C 14.660156 4.027344 14.71875 4.03125 14.71875 4.109375 M 7.402344 4.523438 C 7.238281 5.003906 7.253906 5.136719 7.476562 5.226562 C 7.582031 5.265625 7.667969 5.339844 7.667969 5.390625 C 7.667969 5.445312 7.734375 5.460938 7.832031 5.4375 C 8.089844 5.367188 8.449219 5.472656 8.488281 5.625 C 8.515625 5.734375 8.578125 5.757812 8.773438 5.726562 C 9.179688 5.65625 9.703125 6 9.386719 6.128906 C 9.164062 6.214844 8.96875 6.179688 8.96875 6.046875 C 8.96875 5.960938 8.929688 5.9375 8.84375 5.96875 C 8.726562 6.015625 8.207031 5.875 8.125 5.769531 C 8.105469 5.742188 7.984375 5.703125 7.859375 5.679688 C 6.925781 5.503906 6.394531 4.792969 7.058594 4.613281 C 7.125 4.59375 7.242188 4.472656 7.316406 4.34375 C 7.5 4.019531 7.542969 4.105469 7.402344 4.523438 M 13.261719 4.285156 C 13.261719 4.324219 13.195312 4.355469 13.109375 4.355469 C 12.960938 4.355469 12.910156 4.269531 13.003906 4.175781 C 13.0625 4.113281 13.261719 4.195312 13.261719 4.285156 M 14.335938 4.355469 C 14.335938 4.398438 14.269531 4.433594 14.183594 4.433594 C 14.097656 4.433594 14.03125 4.398438 14.03125 4.355469 C 14.03125 4.3125 14.097656 4.273438 14.183594 4.273438 C 14.269531 4.273438 14.335938 4.3125 14.335938 4.355469 M 15.851562 4.417969 C 15.867188 4.46875 15.828125 4.511719 15.761719 4.511719 C 15.695312 4.511719 15.640625 4.457031 15.640625 4.386719 C 15.640625 4.246094 15.804688 4.273438 15.851562 4.417969 M 16.328125 4.433594 C 16.328125 4.476562 16.277344 4.511719 16.214844 4.511719 C 16.152344 4.511719 16.101562 4.476562 16.101562 4.433594 C 16.101562 4.390625 16.152344 4.355469 16.214844 4.355469 C 16.277344 4.355469 16.328125 4.390625 16.328125 4.433594 M 15.488281 4.550781 C 15.488281 4.683594 15.472656 4.691406 15.300781 4.621094 C 15.128906 4.554688 15.152344 4.433594 15.332031 4.433594 C 15.417969 4.433594 15.488281 4.484375 15.488281 4.550781 M 12.421875 4.742188 C 12.421875 4.980469 12.503906 5.144531 12.621094 5.144531 C 12.804688 5.144531 12.738281 5.382812 12.53125 5.464844 C 12.246094 5.574219 12.242188 5.574219 12.289062 5.226562 C 12.320312 4.984375 12.300781 4.910156 12.222656 4.910156 C 12.160156 4.910156 12.113281 4.835938 12.113281 4.75 C 12.113281 4.644531 12.164062 4.589844 12.265625 4.589844 C 12.367188 4.589844 12.421875 4.644531 12.421875 4.742188 M 12.933594 4.71875 C 12.949219 4.769531 12.886719 4.828125 12.789062 4.855469 C 12.582031 4.910156 12.539062 4.878906 12.601562 4.707031 C 12.652344 4.570312 12.886719 4.578125 12.933594 4.71875 M 7.050781 4.835938 C 6.953125 5.027344 7.027344 5.160156 7.132812 4.984375 C 7.207031 4.863281 7.230469 4.671875 7.171875 4.671875 C 7.152344 4.671875 7.097656 4.746094 7.050781 4.835938 M 13.492188 4.75 C 13.492188 4.792969 13.40625 4.828125 13.300781 4.828125 C 13.195312 4.828125 13.109375 4.792969 13.109375 4.75 C 13.109375 4.707031 13.195312 4.671875 13.300781 4.671875 C 13.40625 4.671875 13.492188 4.707031 13.492188 4.75 M 11.808594 4.867188 C 11.808594 4.933594 11.753906 4.988281 11.691406 4.988281 C 11.628906 4.988281 11.578125 4.933594 11.578125 4.867188 C 11.578125 4.804688 11.628906 4.75 11.691406 4.75 C 11.753906 4.75 11.808594 4.804688 11.808594 4.867188 M 14.71875 4.949219 C 14.71875 5.011719 14.667969 5.066406 14.605469 5.066406 C 14.542969 5.066406 14.488281 5.011719 14.488281 4.949219 C 14.488281 4.882812 14.542969 4.828125 14.605469 4.828125 C 14.667969 4.828125 14.71875 4.882812 14.71875 4.949219 M 14.261719 5.105469 C 14.261719 5.171875 14.226562 5.226562 14.183594 5.226562 C 14.140625 5.226562 14.105469 5.171875 14.105469 5.105469 C 14.105469 5.039062 14.140625 4.988281 14.183594 4.988281 C 14.226562 4.988281 14.261719 5.039062 14.261719 5.105469 M 13.1875 5.304688 C 13.1875 5.410156 13.136719 5.460938 13.035156 5.460938 C 12.929688 5.460938 12.878906 5.410156 12.878906 5.304688 C 12.878906 5.199219 12.929688 5.144531 13.035156 5.144531 C 13.136719 5.144531 13.1875 5.199219 13.1875 5.304688 M 6.703125 5.273438 C 6.769531 5.300781 6.824219 5.378906 6.824219 5.449219 C 6.828125 5.636719 7.011719 5.859375 7.15625 5.859375 C 7.226562 5.859375 7.285156 5.890625 7.285156 5.929688 C 7.285156 5.96875 7.351562 5.984375 7.433594 5.960938 C 7.511719 5.941406 7.660156 5.980469 7.753906 6.046875 C 7.851562 6.117188 7.992188 6.175781 8.066406 6.175781 C 8.238281 6.175781 8.246094 6.398438 8.078125 6.46875 C 8.003906 6.496094 7.925781 6.464844 7.878906 6.378906 C 7.824219 6.277344 7.75 6.257812 7.582031 6.296875 C 7.417969 6.332031 7.359375 6.316406 7.359375 6.234375 C 7.359375 6.15625 7.292969 6.132812 7.128906 6.15625 C 6.992188 6.179688 6.898438 6.15625 6.898438 6.105469 C 6.898438 6.054688 6.847656 6.015625 6.785156 6.015625 C 6.722656 6.015625 6.671875 5.964844 6.671875 5.898438 C 6.671875 5.832031 6.617188 5.777344 6.554688 5.777344 C 6.429688 5.777344 6.414062 5.6875 6.488281 5.402344 C 6.539062 5.203125 6.535156 5.207031 6.703125 5.273438 M 12.035156 5.382812 C 12.035156 5.488281 11.984375 5.542969 11.882812 5.542969 C 11.714844 5.542969 11.710938 5.53125 11.777344 5.351562 C 11.84375 5.171875 12.035156 5.195312 12.035156 5.382812 M 10.726562 5.679688 C 10.820312 5.777344 10.820312 5.804688 10.726562 5.863281 C 10.539062 5.984375 9.8125 5.796875 9.8125 5.625 C 9.8125 5.445312 10.539062 5.488281 10.726562 5.679688 M 6.441406 6.070312 C 6.441406 6.128906 6.375 6.175781 6.296875 6.175781 C 6.097656 6.175781 6.042969 6.457031 6.175781 6.789062 C 6.3125 7.125 6.3125 7.125 6.183594 7.125 C 6.125 7.125 6.042969 7.042969 5.996094 6.945312 C 5.925781 6.792969 5.914062 6.816406 5.910156 7.152344 C 5.90625 7.460938 5.878906 7.527344 5.789062 7.492188 C 5.609375 7.421875 5.644531 7.832031 5.835938 8.042969 C 5.921875 8.140625 5.972656 8.261719 5.945312 8.304688 C 5.871094 8.429688 5.75 8.410156 5.75 8.273438 C 5.75 7.816406 5.550781 8.234375 5.535156 8.722656 C 5.519531 9.285156 5.488281 9.414062 5.390625 9.316406 C 5.324219 9.246094 5.503906 7.363281 5.585938 7.25 C 5.621094 7.203125 5.738281 6.933594 5.847656 6.648438 C 6.203125 5.734375 6.234375 5.679688 6.34375 5.835938 C 6.398438 5.90625 6.441406 6.015625 6.441406 6.070312 M 11.25 5.851562 C 11.367188 6.046875 11.222656 6.1875 10.980469 6.121094 C 10.773438 6.066406 10.773438 6.058594 10.945312 5.863281 C 11.117188 5.671875 11.136719 5.667969 11.25 5.851562 M 13.296875 5.746094 C 13.464844 5.816406 13.445312 5.9375 13.261719 5.9375 C 13.179688 5.9375 13.109375 5.882812 13.109375 5.820312 C 13.109375 5.683594 13.125 5.679688 13.296875 5.746094 M 12.808594 5.859375 C 12.847656 5.859375 12.878906 5.929688 12.878906 6.015625 C 12.878906 6.132812 12.828125 6.175781 12.6875 6.175781 C 12.53125 6.175781 12.496094 6.136719 12.496094 5.96875 C 12.496094 5.8125 12.527344 5.773438 12.617188 5.808594 C 12.683594 5.835938 12.769531 5.859375 12.808594 5.859375 M 12.195312 5.9375 C 12.234375 5.9375 12.265625 5.992188 12.265625 6.054688 C 12.265625 6.136719 12.191406 6.175781 12.035156 6.175781 C 11.789062 6.175781 11.785156 6.171875 11.855469 5.980469 C 11.882812 5.90625 11.953125 5.867188 12.015625 5.894531 C 12.074219 5.917969 12.15625 5.9375 12.195312 5.9375 M 10.171875 6.148438 C 10.347656 6.191406 10.457031 6.375 10.382812 6.5 C 10.320312 6.605469 10.152344 6.585938 10.050781 6.460938 C 10 6.398438 9.902344 6.363281 9.828125 6.382812 C 9.757812 6.398438 9.648438 6.382812 9.589844 6.339844 C 9.417969 6.226562 9.636719 5.988281 9.847656 6.058594 C 9.933594 6.085938 10.082031 6.128906 10.171875 6.148438 M 6.441406 6.332031 C 6.441406 6.375 6.507812 6.414062 6.59375 6.414062 C 6.675781 6.414062 6.746094 6.449219 6.746094 6.492188 C 6.746094 6.636719 6.523438 6.667969 6.402344 6.542969 C 6.269531 6.40625 6.25 6.253906 6.363281 6.253906 C 6.40625 6.253906 6.441406 6.289062 6.441406 6.332031 M 8.570312 6.347656 C 8.765625 6.550781 8.585938 6.785156 8.316406 6.679688 C 8.140625 6.609375 8.238281 6.253906 8.433594 6.253906 C 8.457031 6.253906 8.519531 6.296875 8.570312 6.347656 M 10.957031 6.484375 C 11.046875 6.546875 11.042969 6.578125 10.933594 6.691406 C 10.792969 6.835938 10.578125 6.796875 10.578125 6.625 C 10.578125 6.417969 10.753906 6.351562 10.957031 6.484375 M 13.550781 6.617188 C 13.476562 6.691406 13.332031 6.570312 13.386719 6.480469 C 13.417969 6.425781 13.460938 6.425781 13.515625 6.484375 C 13.5625 6.53125 13.578125 6.589844 13.550781 6.617188 M 9.046875 6.605469 C 9.046875 6.769531 8.960938 6.964844 8.894531 6.964844 C 8.804688 6.964844 8.738281 6.746094 8.789062 6.609375 C 8.84375 6.460938 9.046875 6.453125 9.046875 6.605469 M 13.109375 6.570312 C 13.105469 6.742188 12.960938 6.832031 12.847656 6.734375 C 12.671875 6.585938 12.699219 6.507812 12.917969 6.519531 C 13.023438 6.527344 13.109375 6.550781 13.109375 6.570312 M 7.054688 6.691406 C 7.054688 6.753906 7 6.808594 6.9375 6.808594 C 6.820312 6.808594 6.785156 6.714844 6.875 6.625 C 6.960938 6.53125 7.054688 6.566406 7.054688 6.691406 M 11.390625 6.671875 C 11.417969 6.699219 11.421875 6.777344 11.398438 6.84375 C 11.339844 7.003906 11.117188 6.914062 11.117188 6.726562 C 11.117188 6.59375 11.28125 6.558594 11.390625 6.671875 M 12.265625 6.730469 C 12.265625 6.816406 12.214844 6.886719 12.152344 6.886719 C 12.085938 6.886719 12.035156 6.816406 12.035156 6.730469 C 12.035156 6.640625 12.085938 6.570312 12.152344 6.570312 C 12.214844 6.570312 12.265625 6.640625 12.265625 6.730469 M 7.4375 6.769531 C 7.4375 6.835938 7.386719 6.886719 7.320312 6.886719 C 7.203125 6.886719 7.167969 6.792969 7.257812 6.703125 C 7.347656 6.613281 7.4375 6.644531 7.4375 6.769531 M 11.808594 6.808594 C 11.808594 6.894531 11.753906 6.964844 11.691406 6.964844 C 11.5625 6.964844 11.558594 6.953125 11.625 6.773438 C 11.6875 6.597656 11.808594 6.621094 11.808594 6.808594 M 9.582031 6.847656 C 9.582031 6.921875 9.511719 6.964844 9.390625 6.964844 C 9.207031 6.964844 9.148438 6.890625 9.25 6.78125 C 9.347656 6.683594 9.582031 6.730469 9.582031 6.847656 M 7.820312 6.964844 C 7.820312 7.070312 7.769531 7.125 7.667969 7.125 C 7.492188 7.125 7.46875 7.042969 7.605469 6.902344 C 7.742188 6.765625 7.820312 6.789062 7.820312 6.964844 M 10.09375 7.015625 C 10.167969 7.210938 9.9375 7.335938 9.742188 7.210938 C 9.652344 7.148438 9.648438 7.117188 9.730469 7.011719 C 9.859375 6.851562 10.035156 6.851562 10.09375 7.015625 M 8.355469 7.117188 C 8.355469 7.214844 8.132812 7.394531 8.078125 7.335938 C 8 7.257812 8.117188 7.046875 8.238281 7.046875 C 8.304688 7.046875 8.355469 7.078125 8.355469 7.117188 M 10.578125 7.242188 C 10.578125 7.445312 10.46875 7.492188 10.28125 7.371094 C 10.191406 7.308594 10.191406 7.28125 10.28125 7.175781 C 10.441406 6.988281 10.578125 7.019531 10.578125 7.242188 M 13.867188 7.171875 C 13.886719 7.1875 13.855469 7.253906 13.800781 7.320312 C 13.652344 7.507812 13.492188 7.46875 13.492188 7.238281 C 13.492188 7.050781 13.699219 7.015625 13.867188 7.171875 M 8.738281 7.199219 C 8.738281 7.359375 8.640625 7.519531 8.539062 7.519531 C 8.410156 7.519531 8.402344 7.347656 8.523438 7.21875 C 8.632812 7.105469 8.738281 7.097656 8.738281 7.199219 M 13.261719 7.328125 C 13.261719 7.410156 13.207031 7.445312 13.097656 7.425781 C 12.851562 7.390625 12.824219 7.203125 13.066406 7.203125 C 13.195312 7.203125 13.261719 7.246094 13.261719 7.328125 M 6.882812 7.425781 C 6.898438 7.480469 6.859375 7.519531 6.792969 7.519531 C 6.726562 7.519531 6.671875 7.464844 6.671875 7.394531 C 6.671875 7.253906 6.835938 7.28125 6.882812 7.425781 M 11.78125 7.40625 C 11.917969 7.546875 11.910156 7.558594 11.660156 7.640625 C 11.507812 7.6875 11.484375 7.675781 11.527344 7.5625 C 11.554688 7.488281 11.578125 7.394531 11.578125 7.355469 C 11.578125 7.25 11.648438 7.265625 11.78125 7.40625 M 9.199219 7.476562 C 9.199219 7.539062 9.171875 7.609375 9.140625 7.628906 C 9.039062 7.691406 8.867188 7.546875 8.925781 7.449219 C 9.003906 7.324219 9.199219 7.34375 9.199219 7.476562 M 7.285156 7.558594 C 7.285156 7.625 7.230469 7.679688 7.167969 7.679688 C 7.046875 7.679688 7.015625 7.585938 7.105469 7.496094 C 7.191406 7.402344 7.285156 7.4375 7.285156 7.558594 M 9.628906 7.714844 C 9.761719 7.851562 9.765625 7.917969 9.640625 7.914062 C 9.480469 7.914062 9.332031 7.78125 9.386719 7.6875 C 9.457031 7.574219 9.496094 7.578125 9.628906 7.714844 M 13.953125 7.835938 C 13.953125 7.882812 13.902344 7.917969 13.839844 7.917969 C 13.773438 7.917969 13.722656 7.882812 13.722656 7.835938 C 13.722656 7.792969 13.773438 7.757812 13.839844 7.757812 C 13.902344 7.757812 13.953125 7.792969 13.953125 7.835938 M 13.339844 7.917969 C 13.433594 7.980469 13.421875 7.992188 13.28125 7.996094 C 13.1875 7.996094 13.109375 7.960938 13.109375 7.917969 C 13.109375 7.816406 13.191406 7.816406 13.339844 7.917969 M 10.808594 8.113281 C 10.808594 8.179688 10.757812 8.234375 10.695312 8.234375 C 10.632812 8.234375 10.578125 8.179688 10.578125 8.113281 C 10.578125 8.050781 10.632812 7.996094 10.695312 7.996094 C 10.757812 7.996094 10.808594 8.050781 10.808594 8.113281 M 5.367188 10.007812 C 5.367188 10.070312 5.386719 10.175781 5.414062 10.246094 C 5.441406 10.328125 5.417969 10.371094 5.339844 10.371094 C 5.210938 10.371094 5.097656 10.101562 5.175781 9.976562 C 5.246094 9.859375 5.367188 9.878906 5.367188 10.007812 M 4.324219 10.78125 C 4.253906 10.894531 4.152344 10.851562 4.101562 10.683594 C 4.074219 10.59375 4.09375 10.46875 4.148438 10.398438 C 4.253906 10.265625 4.417969 10.625 4.324219 10.78125 M 4.648438 10.964844 C 4.710938 11.03125 4.75 11.144531 4.730469 11.222656 C 4.699219 11.339844 4.683594 11.332031 4.636719 11.183594 C 4.605469 11.085938 4.550781 11.003906 4.515625 11.003906 C 4.476562 11.003906 4.445312 10.96875 4.445312 10.925781 C 4.445312 10.8125 4.515625 10.828125 4.648438 10.964844 M 5.441406 10.925781 C 5.441406 10.96875 5.390625 11.003906 5.328125 11.003906 C 5.265625 11.003906 5.214844 10.96875 5.214844 10.925781 C 5.214844 10.882812 5.265625 10.847656 5.328125 10.847656 C 5.390625 10.847656 5.441406 10.882812 5.441406 10.925781 M 4.140625 11.320312 C 4.140625 11.363281 4.089844 11.398438 4.023438 11.398438 C 3.960938 11.398438 3.910156 11.363281 3.910156 11.320312 C 3.910156 11.277344 3.960938 11.242188 4.023438 11.242188 C 4.089844 11.242188 4.140625 11.277344 4.140625 11.320312 M 5.085938 11.332031 C 5.175781 11.382812 5.28125 11.472656 5.316406 11.535156 C 5.351562 11.601562 5.4375 11.625 5.527344 11.597656 C 5.609375 11.566406 5.671875 11.585938 5.671875 11.632812 C 5.671875 11.757812 5.421875 11.84375 5.382812 11.730469 C 5.367188 11.679688 5.304688 11.636719 5.246094 11.636719 C 5.183594 11.636719 5.066406 11.566406 4.984375 11.480469 C 4.746094 11.234375 4.785156 11.171875 5.085938 11.332031 M 4.414062 11.59375 C 4.546875 11.726562 4.558594 11.875 4.4375 11.875 C 4.347656 11.875 4.148438 11.644531 4.140625 11.539062 C 4.136719 11.441406 4.296875 11.472656 4.414062 11.59375 M 3.667969 11.757812 C 3.761719 11.871094 3.816406 11.996094 3.792969 12.035156 C 3.722656 12.152344 3.601562 12.125 3.601562 11.992188 C 3.601562 11.929688 3.574219 11.875 3.535156 11.875 C 3.5 11.875 3.449219 11.804688 3.429688 11.714844 C 3.375 11.5 3.464844 11.519531 3.667969 11.757812 M 4.8125 11.890625 C 4.765625 12.035156 4.601562 12.0625 4.601562 11.921875 C 4.601562 11.851562 4.65625 11.796875 4.722656 11.796875 C 4.789062 11.796875 4.828125 11.839844 4.8125 11.890625 M 5.980469 11.878906 C 5.980469 11.972656 5.765625 12.074219 5.699219 12.007812 C 5.632812 11.941406 5.746094 11.796875 5.871094 11.796875 C 5.929688 11.796875 5.980469 11.832031 5.980469 11.878906 M 4.21875 12.195312 C 4.304688 12.28125 4.355469 12.390625 4.328125 12.433594 C 4.261719 12.550781 4.140625 12.523438 4.140625 12.390625 C 4.140625 12.324219 4.089844 12.269531 4.023438 12.269531 C 3.90625 12.269531 3.871094 12.175781 3.960938 12.085938 C 4.035156 12.011719 4.046875 12.015625 4.21875 12.195312 M 5.136719 12.152344 C 5.136719 12.21875 5.085938 12.269531 5.023438 12.269531 C 4.957031 12.269531 4.90625 12.21875 4.90625 12.152344 C 4.90625 12.085938 4.957031 12.035156 5.023438 12.035156 C 5.085938 12.035156 5.136719 12.085938 5.136719 12.152344 M 6.363281 12.113281 C 6.363281 12.15625 6.292969 12.191406 6.210938 12.191406 C 6.125 12.191406 6.058594 12.15625 6.058594 12.113281 C 6.058594 12.070312 6.125 12.035156 6.210938 12.035156 C 6.292969 12.035156 6.363281 12.070312 6.363281 12.113281 M 5.519531 12.273438 C 5.519531 12.367188 5.304688 12.46875 5.242188 12.40625 C 5.171875 12.335938 5.289062 12.191406 5.410156 12.191406 C 5.46875 12.191406 5.519531 12.226562 5.519531 12.273438 M 19.101562 12.597656 L 19.027344 12.863281 L 19.019531 12.621094 C 19.015625 12.484375 19.035156 12.351562 19.066406 12.324219 C 19.160156 12.222656 19.175781 12.332031 19.101562 12.597656 M 4.753906 12.507812 C 4.753906 12.550781 4.808594 12.585938 4.875 12.585938 C 5.011719 12.585938 4.988281 12.757812 4.84375 12.808594 C 4.792969 12.824219 4.753906 12.78125 4.753906 12.707031 C 4.753906 12.613281 4.710938 12.589844 4.601562 12.628906 C 4.453125 12.675781 4.390625 12.589844 4.496094 12.480469 C 4.578125 12.402344 4.753906 12.417969 4.753906 12.507812 M 5.980469 12.503906 C 5.980469 12.597656 5.695312 12.691406 5.597656 12.628906 C 5.445312 12.53125 5.523438 12.429688 5.75 12.429688 C 5.875 12.429688 5.980469 12.460938 5.980469 12.503906 M 3.804688 12.625 C 3.921875 12.746094 3.886719 12.902344 3.746094 12.902344 C 3.644531 12.902344 3.449219 12.699219 3.449219 12.59375 C 3.449219 12.46875 3.671875 12.488281 3.804688 12.625 M 6.210938 12.703125 C 6.210938 12.863281 6.058594 12.9375 5.953125 12.832031 C 5.886719 12.761719 5.894531 12.722656 5.980469 12.664062 C 6.140625 12.558594 6.210938 12.570312 6.210938 12.703125 M 2.988281 12.785156 C 2.988281 12.851562 2.9375 12.902344 2.875 12.902344 C 2.753906 12.902344 2.722656 12.808594 2.8125 12.71875 C 2.898438 12.628906 2.988281 12.660156 2.988281 12.785156 M 5.441406 12.945312 C 5.496094 13.007812 5.585938 13.0625 5.644531 13.0625 C 5.703125 13.0625 5.75 13.117188 5.75 13.179688 C 5.75 13.246094 5.683594 13.300781 5.605469 13.300781 C 5.523438 13.300781 5.441406 13.246094 5.414062 13.179688 C 5.390625 13.117188 5.300781 13.0625 5.214844 13.0625 C 5.0625 13.0625 5.011719 12.980469 5.109375 12.878906 C 5.195312 12.789062 5.34375 12.820312 5.441406 12.945312 M 4.140625 13.023438 C 4.140625 13.089844 4.105469 13.140625 4.0625 13.140625 C 4.019531 13.140625 3.988281 13.089844 3.988281 13.023438 C 3.988281 12.957031 4.019531 12.902344 4.0625 12.902344 C 4.105469 12.902344 4.140625 12.957031 4.140625 13.023438 M 6.636719 12.988281 C 6.695312 13.089844 6.679688 13.105469 6.460938 13.175781 C 6.320312 13.222656 6.285156 13.199219 6.285156 13.066406 C 6.285156 12.890625 6.542969 12.832031 6.636719 12.988281 M 3.324219 13.097656 C 3.402344 13.160156 3.441406 13.25 3.414062 13.292969 C 3.339844 13.417969 3.21875 13.398438 3.21875 13.261719 C 3.21875 13.195312 3.167969 13.140625 3.105469 13.140625 C 3.042969 13.140625 2.988281 13.105469 2.988281 13.0625 C 2.988281 12.949219 3.15625 12.96875 3.324219 13.097656 M 4.601562 13.132812 C 4.601562 13.171875 4.546875 13.226562 4.480469 13.253906 C 4.308594 13.320312 4.292969 13.316406 4.292969 13.179688 C 4.292969 13.117188 4.363281 13.0625 4.445312 13.0625 C 4.53125 13.0625 4.601562 13.09375 4.601562 13.132812 M 7.023438 13.234375 C 7.074219 13.320312 6.867188 13.539062 6.730469 13.539062 C 6.65625 13.539062 6.648438 13.269531 6.722656 13.195312 C 6.800781 13.113281 6.960938 13.132812 7.023438 13.234375 M 7.800781 13.234375 C 7.753906 13.382812 7.589844 13.40625 7.589844 13.265625 C 7.589844 13.199219 7.644531 13.140625 7.710938 13.140625 C 7.777344 13.140625 7.820312 13.183594 7.800781 13.234375 M 3.738281 13.394531 C 3.691406 13.539062 3.527344 13.566406 3.527344 13.425781 C 3.527344 13.355469 3.582031 13.300781 3.648438 13.300781 C 3.714844 13.300781 3.753906 13.34375 3.738281 13.394531 M 4.984375 13.417969 C 4.984375 13.484375 5.050781 13.539062 5.136719 13.539062 C 5.332031 13.539062 5.332031 13.628906 5.140625 13.753906 C 5.011719 13.835938 4.960938 13.824219 4.792969 13.664062 C 4.546875 13.429688 4.546875 13.300781 4.792969 13.300781 C 4.910156 13.300781 4.984375 13.34375 4.984375 13.417969 M 2.683594 13.503906 C 2.683594 13.589844 2.726562 13.613281 2.835938 13.578125 C 3.007812 13.519531 3.039062 13.613281 2.898438 13.757812 C 2.773438 13.886719 2.683594 13.878906 2.683594 13.734375 C 2.683594 13.671875 2.648438 13.617188 2.605469 13.617188 C 2.566406 13.617188 2.53125 13.5625 2.53125 13.496094 C 2.53125 13.433594 2.566406 13.378906 2.605469 13.378906 C 2.648438 13.378906 2.683594 13.433594 2.683594 13.503906 M 6.132812 13.457031 C 6.132812 13.5 6.0625 13.539062 5.980469 13.539062 C 5.894531 13.539062 5.828125 13.5 5.828125 13.457031 C 5.828125 13.414062 5.894531 13.378906 5.980469 13.378906 C 6.0625 13.378906 6.132812 13.414062 6.132812 13.457031 M 4.140625 13.570312 C 4.140625 13.714844 3.90625 13.800781 3.800781 13.695312 C 3.742188 13.632812 3.753906 13.589844 3.835938 13.535156 C 4 13.425781 4.140625 13.441406 4.140625 13.570312 M 7.386719 13.574219 C 7.550781 13.703125 7.496094 13.855469 7.285156 13.855469 C 7.109375 13.855469 7.023438 13.730469 7.082031 13.574219 C 7.136719 13.429688 7.203125 13.429688 7.386719 13.574219 M 8.28125 13.578125 C 8.28125 13.644531 8.210938 13.695312 8.125 13.695312 C 8.042969 13.695312 7.972656 13.644531 7.972656 13.578125 C 7.972656 13.511719 8.042969 13.457031 8.125 13.457031 C 8.210938 13.457031 8.28125 13.511719 8.28125 13.578125 M 6.472656 13.664062 C 6.644531 13.734375 6.621094 13.828125 6.421875 13.882812 C 6.269531 13.921875 6.136719 13.832031 6.132812 13.675781 C 6.132812 13.605469 6.304688 13.597656 6.472656 13.664062 M 4.550781 13.875 C 4.660156 13.976562 4.753906 14.101562 4.753906 14.152344 C 4.753906 14.207031 4.824219 14.25 4.90625 14.25 C 4.992188 14.25 5.121094 14.320312 5.191406 14.410156 C 5.265625 14.496094 5.367188 14.566406 5.421875 14.566406 C 5.476562 14.566406 5.519531 14.621094 5.519531 14.683594 C 5.519531 14.828125 5.242188 14.84375 5.097656 14.707031 C 5.042969 14.652344 4.90625 14.535156 4.792969 14.449219 C 4.679688 14.359375 4.523438 14.226562 4.441406 14.152344 C 4.359375 14.074219 4.242188 14.011719 4.179688 14.011719 C 4.039062 14.011719 4.023438 13.804688 4.160156 13.75 C 4.316406 13.683594 4.339844 13.6875 4.550781 13.875 M 3.417969 13.886719 C 3.476562 13.949219 3.527344 14.058594 3.527344 14.125 C 3.527344 14.285156 3.304688 14.289062 3.246094 14.132812 C 3.222656 14.066406 3.15625 14.011719 3.097656 14.011719 C 3.039062 14.011719 2.988281 13.960938 2.988281 13.894531 C 2.988281 13.742188 3.273438 13.738281 3.417969 13.886719 M 5.769531 14.019531 C 5.960938 14.214844 5.984375 14.277344 5.898438 14.335938 C 5.726562 14.445312 5.679688 14.421875 5.628906 14.207031 C 5.59375 14.066406 5.542969 14.015625 5.460938 14.050781 C 5.351562 14.09375 5.21875 13.976562 5.214844 13.835938 C 5.210938 13.683594 5.554688 13.800781 5.769531 14.019531 M 8.695312 13.824219 C 8.867188 13.890625 8.847656 13.984375 8.648438 14.039062 C 8.492188 14.082031 8.359375 13.988281 8.359375 13.835938 C 8.355469 13.761719 8.527344 13.757812 8.695312 13.824219 M 18.316406 13.914062 C 18.089844 14.222656 17.910156 14.410156 17.835938 14.410156 C 17.792969 14.410156 17.890625 14.265625 18.054688 14.089844 C 18.367188 13.761719 18.492188 13.675781 18.316406 13.914062 M 7.785156 13.9375 C 7.84375 14.039062 7.832031 14.054688 7.609375 14.125 C 7.46875 14.171875 7.4375 14.152344 7.4375 14.019531 C 7.4375 13.84375 7.691406 13.785156 7.785156 13.9375 M 6.886719 14.117188 C 6.90625 14.230469 6.875 14.257812 6.734375 14.238281 C 6.636719 14.222656 6.542969 14.144531 6.53125 14.066406 C 6.507812 13.953125 6.542969 13.925781 6.679688 13.945312 C 6.78125 13.960938 6.871094 14.039062 6.886719 14.117188 M 3.890625 14.3125 C 3.910156 14.367188 3.851562 14.410156 3.761719 14.410156 C 3.605469 14.410156 3.554688 14.324219 3.65625 14.222656 C 3.726562 14.148438 3.855469 14.199219 3.890625 14.3125 M 8.164062 14.335938 C 8.164062 14.394531 8.105469 14.457031 8.03125 14.472656 C 7.898438 14.5 7.84375 14.332031 7.949219 14.222656 C 8.03125 14.140625 8.164062 14.210938 8.164062 14.335938 M 9.277344 14.246094 C 9.277344 14.328125 8.976562 14.445312 8.917969 14.382812 C 8.894531 14.359375 8.902344 14.300781 8.929688 14.253906 C 8.992188 14.152344 9.277344 14.144531 9.277344 14.246094 M 7.207031 14.28125 C 7.207031 14.300781 7.226562 14.371094 7.253906 14.441406 C 7.285156 14.523438 7.257812 14.566406 7.171875 14.566406 C 7.023438 14.566406 6.808594 14.371094 6.878906 14.300781 C 6.929688 14.246094 7.207031 14.230469 7.207031 14.28125 M 10.65625 14.484375 C 10.65625 14.566406 10.621094 14.660156 10.574219 14.691406 C 10.457031 14.765625 10.320312 14.601562 10.375 14.453125 C 10.441406 14.277344 10.65625 14.300781 10.65625 14.484375 M 15.332031 14.410156 C 15.332031 14.453125 15.28125 14.488281 15.21875 14.488281 C 15.15625 14.488281 15.101562 14.453125 15.101562 14.410156 C 15.101562 14.363281 15.15625 14.328125 15.21875 14.328125 C 15.28125 14.328125 15.332031 14.363281 15.332031 14.410156 M 4.195312 14.542969 C 4.222656 14.628906 3.992188 14.757812 3.929688 14.691406 C 3.90625 14.667969 3.914062 14.59375 3.9375 14.523438 C 3.988281 14.386719 4.148438 14.398438 4.195312 14.542969 M 6.324219 14.566406 C 6.324219 14.628906 6.265625 14.695312 6.191406 14.710938 C 6.097656 14.730469 6.058594 14.6875 6.058594 14.566406 C 6.058594 14.449219 6.097656 14.40625 6.191406 14.421875 C 6.265625 14.4375 6.324219 14.503906 6.324219 14.566406 M 9.722656 14.554688 C 9.777344 14.589844 9.8125 14.671875 9.796875 14.730469 C 9.78125 14.808594 9.832031 14.835938 9.949219 14.820312 C 10.078125 14.800781 10.121094 14.832031 10.121094 14.957031 C 10.121094 15.164062 9.957031 15.167969 9.832031 14.960938 C 9.777344 14.875 9.667969 14.804688 9.585938 14.804688 C 9.503906 14.804688 9.398438 14.734375 9.351562 14.644531 C 9.265625 14.472656 9.507812 14.414062 9.722656 14.554688 M 8.613281 14.679688 C 8.636719 14.742188 8.601562 14.8125 8.539062 14.835938 C 8.367188 14.90625 8.355469 14.898438 8.355469 14.726562 C 8.355469 14.542969 8.550781 14.507812 8.613281 14.679688 M 3.335938 14.808594 C 3.335938 14.871094 3.273438 14.933594 3.199219 14.949219 C 3.070312 14.972656 3.015625 14.804688 3.121094 14.695312 C 3.199219 14.613281 3.335938 14.683594 3.335938 14.808594 M 7.722656 14.804688 C 7.746094 14.902344 7.824219 14.960938 7.933594 14.960938 C 8.042969 14.960938 8.125 15.019531 8.148438 15.121094 C 8.175781 15.21875 8.152344 15.277344 8.085938 15.277344 C 7.90625 15.277344 7.742188 15.183594 7.742188 15.078125 C 7.742188 15.019531 7.667969 14.960938 7.570312 14.949219 C 7.476562 14.933594 7.386719 14.859375 7.375 14.785156 C 7.335938 14.582031 7.667969 14.597656 7.722656 14.804688 M 12.113281 14.847656 C 12.113281 14.910156 12.082031 14.960938 12.042969 14.960938 C 11.960938 14.960938 11.878906 14.757812 11.9375 14.695312 C 12.003906 14.625 12.113281 14.71875 12.113281 14.847656 M 13.339844 14.726562 C 13.339844 14.769531 13.289062 14.804688 13.226562 14.804688 C 13.160156 14.804688 13.109375 14.769531 13.109375 14.726562 C 13.109375 14.679688 13.160156 14.644531 13.226562 14.644531 C 13.289062 14.644531 13.339844 14.679688 13.339844 14.726562 M 4.554688 14.773438 C 4.742188 14.847656 4.699219 14.960938 4.484375 14.960938 C 4.367188 14.960938 4.292969 14.917969 4.292969 14.84375 C 4.292969 14.714844 4.363281 14.695312 4.554688 14.773438 M 6.75 14.851562 C 6.835938 14.953125 6.832031 14.988281 6.742188 15.046875 C 6.597656 15.140625 6.441406 15.140625 6.441406 15.046875 C 6.441406 15.007812 6.417969 14.917969 6.394531 14.851562 C 6.332031 14.679688 6.617188 14.679688 6.75 14.851562 M 11.195312 14.84375 C 11.304688 14.984375 11.296875 15 11.058594 15.078125 C 10.910156 15.125 10.886719 15.101562 10.886719 14.929688 C 10.886719 14.699219 11.042969 14.65625 11.195312 14.84375 M 5.945312 14.96875 C 6.007812 15.074219 5.992188 15.085938 5.730469 15.152344 C 5.554688 15.195312 5.519531 15.175781 5.519531 15.042969 C 5.519531 14.867188 5.851562 14.808594 5.945312 14.96875 M 3.757812 15.042969 C 3.757812 15.085938 3.671875 15.121094 3.566406 15.121094 C 3.460938 15.121094 3.375 15.085938 3.375 15.042969 C 3.375 15 3.460938 14.960938 3.566406 14.960938 C 3.671875 14.960938 3.757812 15 3.757812 15.042969 M 4.945312 15.128906 C 4.945312 15.1875 4.867188 15.25 4.773438 15.265625 C 4.585938 15.292969 4.523438 15.085938 4.695312 15.015625 C 4.839844 14.957031 4.945312 15.003906 4.945312 15.128906 M 9.179688 15.101562 C 9.199219 15.164062 9.140625 15.199219 9.015625 15.199219 C 8.886719 15.199219 8.816406 15.15625 8.816406 15.074219 C 8.816406 14.925781 9.132812 14.949219 9.179688 15.101562 M 7.117188 15.253906 C 7.078125 15.453125 6.898438 15.480469 6.898438 15.285156 C 6.898438 15.1875 6.949219 15.121094 7.019531 15.121094 C 7.09375 15.121094 7.132812 15.175781 7.117188 15.253906 M 11.695312 15.207031 C 11.722656 15.25 11.726562 15.308594 11.707031 15.332031 C 11.644531 15.394531 11.347656 15.28125 11.347656 15.195312 C 11.347656 15.09375 11.632812 15.101562 11.695312 15.207031 M 4.121094 15.300781 C 4.074219 15.453125 3.757812 15.472656 3.757812 15.324219 C 3.757812 15.242188 3.824219 15.199219 3.953125 15.199219 C 4.078125 15.199219 4.140625 15.238281 4.121094 15.300781 M 6.210938 15.28125 C 6.308594 15.351562 6.304688 15.378906 6.175781 15.480469 C 6.007812 15.613281 5.902344 15.628906 5.902344 15.523438 C 5.902344 15.484375 5.882812 15.394531 5.855469 15.324219 C 5.804688 15.179688 6.023438 15.152344 6.210938 15.28125 M 10.65625 15.3125 C 10.65625 15.476562 10.496094 15.554688 10.421875 15.429688 C 10.386719 15.375 10.378906 15.296875 10.398438 15.261719 C 10.460938 15.15625 10.65625 15.195312 10.65625 15.3125 M 9.582031 15.398438 C 9.582031 15.464844 9.53125 15.515625 9.46875 15.515625 C 9.40625 15.515625 9.351562 15.464844 9.351562 15.398438 C 9.351562 15.332031 9.40625 15.277344 9.46875 15.277344 C 9.53125 15.277344 9.582031 15.332031 9.582031 15.398438 M 5.277344 15.542969 C 5.292969 15.621094 5.253906 15.675781 5.179688 15.675781 C 5.109375 15.675781 5.058594 15.605469 5.058594 15.511719 C 5.058594 15.316406 5.238281 15.34375 5.277344 15.542969 M 8.664062 15.46875 C 8.664062 15.617188 8.421875 15.703125 8.347656 15.582031 C 8.316406 15.527344 8.308594 15.457031 8.328125 15.421875 C 8.390625 15.3125 8.664062 15.351562 8.664062 15.46875 M 13.339844 15.476562 C 13.339844 15.542969 13.308594 15.597656 13.273438 15.597656 C 13.234375 15.597656 13.183594 15.542969 13.160156 15.476562 C 13.132812 15.40625 13.160156 15.359375 13.226562 15.359375 C 13.289062 15.359375 13.339844 15.410156 13.339844 15.476562 M 4.425781 15.566406 C 4.460938 15.683594 4.210938 15.78125 4.117188 15.683594 C 4.078125 15.644531 4.070312 15.570312 4.101562 15.519531 C 4.164062 15.410156 4.382812 15.441406 4.425781 15.566406 M 7.609375 15.546875 C 7.800781 15.699219 7.777344 15.753906 7.511719 15.753906 C 7.335938 15.753906 7.285156 15.71875 7.285156 15.597656 C 7.285156 15.414062 7.414062 15.394531 7.609375 15.546875 M 6.636719 15.683594 C 6.695312 15.78125 6.523438 15.925781 6.402344 15.886719 C 6.359375 15.871094 6.3125 15.800781 6.300781 15.726562 C 6.273438 15.578125 6.550781 15.539062 6.636719 15.683594 M 11.148438 15.667969 C 11.171875 15.703125 11.136719 15.78125 11.070312 15.839844 C 10.953125 15.941406 10.816406 15.839844 10.8125 15.65625 C 10.808594 15.570312 11.097656 15.582031 11.148438 15.667969 M 12.265625 15.675781 C 12.265625 15.71875 12.214844 15.753906 12.152344 15.753906 C 12.089844 15.753906 12.035156 15.71875 12.035156 15.675781 C 12.035156 15.632812 12.089844 15.597656 12.152344 15.597656 C 12.214844 15.597656 12.265625 15.632812 12.265625 15.675781 M 3.601562 15.785156 C 3.601562 15.84375 3.671875 15.914062 3.757812 15.933594 C 3.933594 15.984375 3.964844 16.148438 3.796875 16.148438 C 3.730469 16.148438 3.679688 16.113281 3.679688 16.066406 C 3.679688 16.019531 3.644531 16.003906 3.601562 16.03125 C 3.5625 16.058594 3.527344 16.039062 3.527344 15.984375 C 3.527344 15.933594 3.464844 15.84375 3.390625 15.785156 C 3.269531 15.6875 3.269531 15.679688 3.429688 15.675781 C 3.527344 15.675781 3.601562 15.722656 3.601562 15.785156 M 5.648438 15.800781 C 5.691406 15.914062 5.566406 16.066406 5.433594 16.070312 C 5.339844 16.070312 5.304688 15.761719 5.394531 15.726562 C 5.550781 15.65625 5.601562 15.671875 5.648438 15.800781 M 10.148438 15.792969 C 10.171875 15.855469 10.15625 15.929688 10.113281 15.957031 C 9.996094 16.03125 9.8125 15.933594 9.8125 15.796875 C 9.8125 15.640625 10.089844 15.636719 10.148438 15.792969 M 9.070312 15.867188 C 9.09375 15.929688 9.058594 16 8.992188 16.027344 C 8.871094 16.074219 8.664062 15.949219 8.664062 15.824219 C 8.664062 15.707031 9.027344 15.746094 9.070312 15.867188 M 4.8125 15.972656 C 4.832031 16.035156 4.769531 16.070312 4.644531 16.070312 C 4.453125 16.070312 4.394531 15.996094 4.5 15.882812 C 4.578125 15.800781 4.773438 15.855469 4.8125 15.972656 M 8.050781 15.996094 C 8.050781 16.109375 8.007812 16.152344 7.917969 16.136719 C 7.71875 16.09375 7.695312 15.832031 7.890625 15.832031 C 8 15.832031 8.050781 15.882812 8.050781 15.996094 M 12.742188 16.085938 C 12.625 16.207031 12.539062 16.117188 12.605469 15.941406 C 12.644531 15.839844 12.675781 15.828125 12.746094 15.898438 C 12.8125 15.96875 12.8125 16.015625 12.742188 16.085938 M 11.734375 15.992188 C 11.855469 15.992188 11.8125 16.128906 11.679688 16.183594 C 11.609375 16.210938 11.523438 16.1875 11.488281 16.132812 C 11.390625 15.972656 11.414062 15.890625 11.542969 15.945312 C 11.609375 15.96875 11.699219 15.992188 11.734375 15.992188 M 7.207031 16.074219 C 7.207031 16.117188 7.117188 16.1875 7.011719 16.230469 C 6.75 16.332031 6.746094 16.332031 6.746094 16.148438 C 6.746094 16.027344 6.796875 15.992188 6.976562 15.992188 C 7.101562 15.992188 7.207031 16.027344 7.207031 16.074219 M 10.640625 16.085938 C 10.765625 16.214844 10.757812 16.28125 10.609375 16.339844 C 10.449219 16.402344 10.238281 16.140625 10.375 16.054688 C 10.5 15.972656 10.535156 15.976562 10.640625 16.085938 M 6.113281 16.210938 C 6.132812 16.265625 6.078125 16.308594 5.988281 16.308594 C 5.890625 16.308594 5.828125 16.257812 5.828125 16.183594 C 5.828125 16.039062 6.066406 16.058594 6.113281 16.210938 M 5.136719 16.265625 C 5.136719 16.445312 5.003906 16.480469 4.960938 16.308594 C 4.933594 16.207031 4.957031 16.148438 5.027344 16.148438 C 5.089844 16.148438 5.136719 16.203125 5.136719 16.265625 M 9.558594 16.273438 C 9.570312 16.316406 9.546875 16.402344 9.507812 16.464844 C 9.410156 16.625 9.253906 16.464844 9.320312 16.277344 C 9.371094 16.140625 9.515625 16.136719 9.558594 16.273438 M 8.464844 16.359375 C 8.492188 16.429688 8.492188 16.507812 8.46875 16.535156 C 8.414062 16.59375 8.183594 16.445312 8.144531 16.324219 C 8.097656 16.175781 8.410156 16.210938 8.464844 16.359375 M 12.378906 16.46875 C 12.347656 16.523438 12.28125 16.523438 12.046875 16.472656 C 12.03125 16.46875 12.0625 16.414062 12.113281 16.347656 C 12.214844 16.222656 12.460938 16.335938 12.378906 16.46875 M 7.582031 16.378906 C 7.71875 16.46875 7.625 16.625 7.433594 16.625 C 7.351562 16.625 7.285156 16.609375 7.285156 16.59375 C 7.285156 16.574219 7.261719 16.503906 7.238281 16.433594 C 7.183594 16.292969 7.398438 16.261719 7.582031 16.378906 M 6.515625 16.421875 C 6.515625 16.4375 6.539062 16.511719 6.5625 16.578125 C 6.597656 16.671875 6.5625 16.703125 6.410156 16.703125 C 6.222656 16.703125 6.140625 16.5625 6.261719 16.441406 C 6.316406 16.382812 6.515625 16.367188 6.515625 16.421875 M 11.199219 16.546875 C 11.238281 16.546875 11.269531 16.582031 11.269531 16.628906 C 11.269531 16.753906 10.945312 16.683594 10.902344 16.554688 C 10.875 16.476562 10.90625 16.457031 10.996094 16.492188 C 11.070312 16.523438 11.160156 16.546875 11.199219 16.546875 M 10.179688 16.691406 C 10.203125 16.761719 10.15625 16.789062 10.039062 16.769531 C 9.941406 16.753906 9.847656 16.695312 9.828125 16.636719 C 9.808594 16.566406 9.851562 16.539062 9.972656 16.558594 C 10.066406 16.574219 10.160156 16.632812 10.179688 16.691406 M 9.082031 16.746094 C 9.164062 16.808594 9.195312 16.863281 9.15625 16.863281 C 9.117188 16.863281 9.007812 16.886719 8.914062 16.914062 C 8.773438 16.949219 8.738281 16.925781 8.738281 16.792969 C 8.738281 16.597656 8.867188 16.582031 9.082031 16.746094 M 7.921875 16.816406 C 7.964844 16.933594 7.914062 17.019531 7.808594 17.019531 C 7.773438 17.019531 7.742188 16.949219 7.742188 16.863281 C 7.742188 16.679688 7.859375 16.648438 7.921875 16.816406 M 7.011719 16.921875 C 7.035156 17 7.191406 17.121094 7.359375 17.191406 C 7.71875 17.347656 7.75 17.460938 7.457031 17.519531 C 7.238281 17.566406 7.054688 17.417969 7.054688 17.199219 C 7.054688 17.125 7.003906 17.105469 6.90625 17.136719 C 6.753906 17.1875 6.542969 16.9375 6.648438 16.832031 C 6.746094 16.734375 6.96875 16.785156 7.011719 16.921875 M 6.015625 16.933594 C 6.058594 17.011719 5.859375 17.257812 5.753906 17.257812 C 5.6875 17.257812 5.597656 17.066406 5.597656 16.933594 C 5.597656 16.839844 5.957031 16.839844 6.015625 16.933594 M 10.734375 17.019531 C 10.804688 17.160156 10.792969 17.179688 10.621094 17.179688 C 10.515625 17.179688 10.425781 17.164062 10.425781 17.144531 C 10.425781 17.128906 10.40625 17.054688 10.378906 16.988281 C 10.308594 16.796875 10.632812 16.828125 10.734375 17.019531 M 11.808594 16.933594 C 11.808594 17.019531 11.570312 17.121094 11.511719 17.058594 C 11.484375 17.03125 11.515625 16.980469 11.578125 16.9375 C 11.722656 16.84375 11.808594 16.84375 11.808594 16.933594 M 9.617188 17.070312 C 9.683594 17.09375 9.738281 17.152344 9.738281 17.191406 C 9.738281 17.304688 9.253906 17.234375 9.21875 17.121094 C 9.183594 17.015625 9.40625 16.988281 9.617188 17.070312 M 8.589844 17.21875 C 8.703125 17.367188 8.675781 17.40625 8.429688 17.433594 C 8.285156 17.453125 8.238281 17.414062 8.21875 17.277344 C 8.1875 17.066406 8.433594 17.027344 8.589844 17.21875 M 11.046875 17.359375 C 10.949219 17.460938 10.851562 17.382812 10.921875 17.261719 C 10.949219 17.214844 11.007812 17.199219 11.050781 17.226562 C 11.105469 17.261719 11.101562 17.304688 11.046875 17.359375 M 6.414062 17.378906 C 6.480469 17.5625 6.363281 17.632812 6.253906 17.476562 C 6.199219 17.402344 6.128906 17.367188 6.09375 17.398438 C 6.058594 17.429688 6.058594 17.410156 6.085938 17.355469 C 6.164062 17.21875 6.359375 17.234375 6.414062 17.378906 M 10.148438 17.460938 C 10.21875 17.648438 10.214844 17.652344 10.003906 17.652344 C 9.722656 17.652344 9.765625 17.378906 10.054688 17.34375 C 10.082031 17.339844 10.125 17.394531 10.148438 17.460938 M 9.003906 17.542969 C 9.160156 17.605469 9.15625 17.78125 8.996094 17.847656 C 8.835938 17.910156 8.707031 17.78125 8.765625 17.621094 C 8.816406 17.480469 8.832031 17.476562 9.003906 17.542969 M 7.878906 17.722656 C 7.902344 17.789062 7.863281 17.816406 7.777344 17.800781 C 7.703125 17.785156 7.625 17.726562 7.605469 17.667969 C 7.585938 17.597656 7.621094 17.570312 7.707031 17.585938 C 7.785156 17.601562 7.859375 17.664062 7.878906 17.722656"/></svg>