<svg xmlns="http://www.w3.org/2000/svg" xmlns:xlink="http://www.w3.org/1999/xlink" width="24" height="24" version="1.1" viewBox="0 0 24 24"><path d="M 0 2.261719 L 0 4.523438 L 0.03125 4.488281 L 0.210938 4.289062 C 0.320312 4.167969 0.433594 4.042969 0.546875 3.921875 L 1.261719 3.128906 C 1.285156 3.105469 1.304688 3.082031 1.324219 3.0625 L 1.59375 2.761719 C 1.601562 2.75 1.632812 2.722656 1.660156 2.691406 C 1.703125 2.640625 2.203125 2.089844 2.285156 2 C 2.335938 1.941406 2.339844 1.957031 2.265625 1.839844 C 2.136719 1.644531 2.054688 1.425781 2.019531 1.199219 C 2.007812 1.117188 2.019531 0.804688 2.046875 0.679688 C 2.054688 0.644531 2.054688 0.640625 1.902344 0.542969 C 1.832031 0.496094 1.761719 0.445312 1.691406 0.398438 C 1.667969 0.378906 1.644531 0.367188 1.621094 0.355469 C 1.609375 0.355469 1.605469 0.351562 1.601562 0.347656 C 1.460938 0.246094 1.316406 0.148438 1.171875 0.0546875 C 1.164062 0.046875 1.140625 0.0585938 1.117188 0.0742188 C 1.042969 0.125 0.964844 0.164062 0.882812 0.191406 C 0.855469 0.195312 0.828125 0.199219 0.800781 0.203125 C 0.628906 0.242188 0.328125 0.15625 0.214844 0.0351562 C 0.179688 0.00390625 0.175781 0 0.0898438 0 L 0 0 L 0 2.261719 M 1.507812 0.0898438 C 1.585938 0.140625 1.648438 0.1875 1.660156 0.191406 C 1.769531 0.285156 2.105469 0.488281 2.117188 0.46875 C 2.152344 0.359375 2.3125 0.0859375 2.351562 0.0585938 C 2.351562 0.0507812 2.367188 0.0390625 2.378906 0.0273438 L 2.398438 0 L 1.371094 0 L 1.507812 0.0898438 M 4.671875 0.0195312 C 4.675781 0.03125 4.710938 0.078125 4.742188 0.121094 C 5.144531 0.652344 5.121094 1.484375 4.691406 1.972656 C 4.574219 2.105469 4.441406 2.222656 4.289062 2.316406 C 3.839844 2.578125 3.285156 2.589844 2.820312 2.347656 C 2.699219 2.277344 2.714844 2.273438 2.601562 2.40625 C 2.550781 2.464844 2.496094 2.523438 2.480469 2.539062 C 2.46875 2.550781 2.40625 2.621094 2.339844 2.695312 C 2.285156 2.757812 2.230469 2.816406 2.171875 2.878906 C 2.148438 2.90625 2.070312 2.988281 2.007812 3.0625 C 1.824219 3.265625 1.714844 3.382812 1.695312 3.402344 C 1.6875 3.417969 1.648438 3.453125 1.617188 3.492188 C 1.535156 3.585938 1.449219 3.679688 1.363281 3.769531 C 1.355469 3.78125 1.289062 3.851562 1.222656 3.929688 C 1.152344 4.003906 1.082031 4.082031 1.058594 4.105469 L 0.902344 4.285156 C 0.832031 4.359375 0.757812 4.445312 0.730469 4.472656 C 0.703125 4.5 0.625 4.585938 0.558594 4.660156 C 0.367188 4.875 0.347656 4.894531 0.234375 5.019531 C 0.183594 5.070312 0.136719 5.121094 0.0898438 5.175781 C 0.0703125 5.199219 0.046875 5.222656 0.0273438 5.246094 L 0 5.273438 L 0 13.554688 L 0.0429688 13.566406 C 0.0664062 13.570312 0.191406 13.601562 0.316406 13.632812 C 0.441406 13.664062 0.945312 13.789062 1.4375 13.917969 C 1.929688 14.039062 2.648438 14.222656 3.03125 14.316406 C 3.761719 14.5 3.992188 14.558594 4.027344 14.570312 C 4.039062 14.574219 4.054688 14.5625 4.074219 14.523438 C 4.355469 13.960938 5.09375 13.773438 5.632812 14.117188 C 6.042969 14.386719 6.230469 14.929688 6.0625 15.382812 C 5.738281 16.273438 4.546875 16.367188 4.078125 15.539062 C 4.058594 15.507812 4.042969 15.476562 4.03125 15.441406 C 4.023438 15.40625 4.015625 15.40625 3.941406 15.421875 L 3.625 15.484375 C 3.160156 15.574219 2.046875 15.789062 1.777344 15.839844 C 1.636719 15.871094 1.410156 15.910156 1.277344 15.9375 C 1.144531 15.964844 0.851562 16.019531 0.617188 16.066406 C 0.390625 16.109375 0.183594 16.148438 0.164062 16.152344 C 0.132812 16.160156 0.125 16.164062 0.121094 16.207031 C 0.101562 16.414062 0.0859375 16.46875 0.046875 16.566406 L 0.0078125 16.667969 L 0.00390625 20.335938 L 0 24 L 2.402344 24 C 3.722656 24 4.804688 23.996094 4.804688 23.992188 C 4.804688 23.992188 4.796875 23.953125 4.785156 23.910156 C 4.726562 23.691406 4.777344 23.457031 4.917969 23.277344 C 4.976562 23.210938 4.976562 23.214844 4.914062 23.144531 C 4.847656 23.070312 4.222656 22.335938 4.195312 22.308594 C 4.183594 22.292969 4.144531 22.25 4.109375 22.203125 C 4.070312 22.160156 3.988281 22.066406 3.925781 21.992188 C 3.875 21.9375 3.828125 21.882812 3.78125 21.828125 C 3.734375 21.773438 3.6875 21.71875 3.640625 21.660156 C 3.578125 21.589844 3.492188 21.492188 3.453125 21.445312 C 3.414062 21.394531 3.359375 21.332031 3.332031 21.304688 C 3.308594 21.273438 3.261719 21.226562 3.234375 21.191406 C 3.167969 21.113281 3.105469 21.039062 3.039062 20.960938 C 2.957031 20.871094 2.855469 20.746094 2.800781 20.6875 C 2.75 20.628906 2.691406 20.558594 2.667969 20.53125 L 2.628906 20.488281 L 2.558594 20.515625 C 2.453125 20.566406 2.230469 20.59375 2.148438 20.566406 L 2.097656 20.554688 C 1.53125 20.457031 1.339844 19.632812 1.800781 19.265625 C 2.507812 18.703125 3.402344 19.609375 2.835938 20.316406 C 2.792969 20.371094 2.789062 20.367188 2.875 20.464844 C 3 20.609375 3.171875 20.808594 3.203125 20.847656 L 3.296875 20.957031 C 3.332031 20.992188 3.425781 21.105469 3.511719 21.203125 C 3.59375 21.296875 3.664062 21.382812 3.671875 21.390625 C 3.679688 21.398438 3.726562 21.449219 3.773438 21.507812 C 3.871094 21.628906 4.132812 21.929688 4.167969 21.964844 C 4.179688 21.980469 4.207031 22.011719 4.226562 22.035156 C 4.332031 22.164062 4.4375 22.289062 4.550781 22.410156 C 4.5625 22.425781 4.601562 22.472656 4.632812 22.507812 C 4.660156 22.542969 4.785156 22.683594 4.902344 22.824219 C 5.148438 23.113281 5.121094 23.089844 5.1875 23.058594 C 5.558594 22.894531 5.992188 23.042969 6.160156 23.398438 C 6.179688 23.445312 6.191406 23.449219 6.214844 23.445312 C 6.242188 23.4375 6.5625 23.386719 6.648438 23.371094 L 6.863281 23.339844 C 7.203125 23.285156 7.632812 23.21875 7.667969 23.210938 C 7.683594 23.207031 7.828125 23.183594 7.984375 23.164062 C 8.164062 23.132812 8.34375 23.101562 8.527344 23.078125 L 9.136719 22.980469 L 9.902344 22.859375 C 10.230469 22.808594 10.628906 22.742188 10.855469 22.707031 L 10.972656 22.691406 L 10.96875 22.539062 C 10.96875 22.269531 11.03125 22.023438 11.148438 21.835938 C 11.164062 21.808594 11.179688 21.78125 11.191406 21.753906 C 11.191406 21.746094 11.195312 21.742188 11.199219 21.738281 C 11.207031 21.738281 11.230469 21.707031 11.257812 21.671875 C 11.328125 21.582031 11.410156 21.5 11.492188 21.425781 C 11.511719 21.414062 11.53125 21.398438 11.539062 21.390625 C 11.566406 21.367188 11.597656 21.347656 11.628906 21.328125 C 11.632812 21.328125 11.675781 21.308594 11.722656 21.28125 C 12.371094 20.921875 13.246094 21.199219 13.597656 21.875 C 13.773438 22.214844 13.808594 22.671875 13.675781 22.984375 C 13.660156 23.027344 13.660156 23.046875 13.679688 23.046875 C 13.683594 23.046875 13.847656 23.128906 14.042969 23.21875 C 14.378906 23.386719 14.714844 23.550781 15.050781 23.710938 L 15.488281 23.925781 L 15.640625 24 L 24 24 L 24 0 L 22.152344 0.00390625 C 20.300781 0.0078125 20.300781 0.0078125 20.183594 0.03125 C 19.957031 0.078125 19.644531 0.078125 19.433594 0.0273438 C 19.355469 0.0117188 19.277344 0.00390625 19.195312 0.00390625 L 19.027344 0 L 18.839844 0.300781 C 18.738281 0.46875 18.648438 0.613281 18.640625 0.628906 C 18.632812 0.640625 18.585938 0.71875 18.53125 0.800781 C 18.480469 0.886719 18.4375 0.957031 18.4375 0.964844 C 18.414062 0.992188 18.390625 1.023438 18.375 1.054688 C 18.320312 1.148438 18.324219 1.136719 18.183594 1.363281 C 18.121094 1.46875 18.0625 1.5625 18.054688 1.574219 C 18.046875 1.585938 17.9375 1.761719 17.8125 1.964844 C 17.6875 2.167969 17.570312 2.351562 17.558594 2.371094 L 17.441406 2.554688 C 17.390625 2.640625 17.347656 2.710938 17.347656 2.710938 C 17.34375 2.726562 17.332031 2.742188 17.324219 2.757812 C 17.164062 3 17.011719 3.242188 16.863281 3.492188 L 16.757812 3.660156 C 16.75 3.671875 16.660156 3.816406 16.558594 3.980469 C 16.34375 4.324219 16.070312 4.761719 16.023438 4.839844 C 16 4.886719 15.894531 5.050781 15.871094 5.089844 C 15.808594 5.195312 15.742188 5.296875 15.679688 5.394531 C 15.570312 5.5625 15.46875 5.734375 15.367188 5.90625 C 15.335938 5.945312 15.304688 5.988281 15.285156 6.035156 C 15.285156 6.039062 15.320312 6.078125 15.367188 6.125 C 15.414062 6.171875 15.480469 6.246094 15.515625 6.289062 C 15.550781 6.332031 15.578125 6.371094 15.585938 6.375 C 15.589844 6.375 15.59375 6.382812 15.59375 6.390625 C 15.59375 6.402344 15.601562 6.414062 15.609375 6.421875 C 15.625 6.433594 15.636719 6.449219 15.644531 6.464844 L 15.71875 6.601562 C 15.929688 7.007812 15.996094 7.480469 15.902344 7.929688 C 15.867188 8.101562 15.773438 8.359375 15.714844 8.453125 C 15.703125 8.46875 15.691406 8.484375 15.683594 8.503906 C 15.683594 8.558594 15.378906 8.921875 15.234375 9.042969 C 15.203125 9.066406 15.171875 9.089844 15.167969 9.09375 C 15.15625 9.113281 14.933594 9.25 14.832031 9.296875 C 14.03125 9.691406 13.019531 9.480469 12.460938 8.800781 L 12.402344 8.734375 C 12.273438 8.585938 12.078125 8.175781 12.035156 7.945312 C 11.863281 7.105469 12.203125 6.308594 12.917969 5.839844 C 12.953125 5.820312 12.984375 5.804688 12.988281 5.804688 C 13 5.796875 13.011719 5.789062 13.023438 5.78125 C 13.105469 5.722656 13.429688 5.609375 13.585938 5.578125 C 13.640625 5.570312 13.703125 5.558594 13.71875 5.554688 C 13.9375 5.515625 14.371094 5.558594 14.625 5.652344 C 14.65625 5.667969 14.6875 5.679688 14.722656 5.679688 C 14.90625 5.371094 15.097656 5.0625 15.289062 4.757812 C 15.296875 4.746094 15.328125 4.695312 15.355469 4.644531 C 15.390625 4.59375 15.425781 4.542969 15.457031 4.492188 L 15.554688 4.332031 C 15.589844 4.277344 15.625 4.222656 15.660156 4.167969 C 15.683594 4.125 15.722656 4.0625 15.746094 4.023438 C 15.769531 3.988281 15.824219 3.898438 15.867188 3.832031 L 16.121094 3.421875 C 16.367188 3.019531 16.367188 3.023438 16.382812 3 L 16.449219 2.890625 L 16.640625 2.578125 C 16.703125 2.488281 16.746094 2.417969 16.847656 2.25 C 17 2.007812 17.269531 1.570312 17.421875 1.324219 C 17.515625 1.171875 17.609375 1.023438 17.628906 0.992188 C 17.648438 0.960938 17.695312 0.886719 17.734375 0.828125 C 17.867188 0.605469 17.890625 0.570312 17.910156 0.539062 L 17.9375 0.492188 C 17.941406 0.484375 18.011719 0.367188 18.09375 0.238281 L 18.242188 0.0078125 L 16.035156 0.00390625 C 14.816406 0 13.820312 0.00390625 13.820312 0.00390625 C 13.820312 0.0351562 13.828125 0.0625 13.835938 0.09375 C 13.898438 0.378906 13.820312 0.792969 13.664062 1.039062 C 13.652344 1.058594 13.640625 1.082031 13.632812 1.101562 C 13.632812 1.109375 13.628906 1.113281 13.625 1.113281 C 13.621094 1.113281 13.605469 1.128906 13.59375 1.148438 C 13.582031 1.167969 13.570312 1.1875 13.554688 1.203125 C 13.542969 1.210938 13.503906 1.257812 13.46875 1.296875 C 13.117188 1.652344 12.601562 1.792969 12.121094 1.660156 C 11.449219 1.484375 11 0.757812 11.136719 0.0859375 C 11.144531 0.0703125 11.148438 0.0429688 11.148438 0.0273438 L 11.15625 0 L 7.902344 0 C 4.746094 0 4.652344 0 4.671875 0.0195312 M 23.988281 1.023438 L 23.988281 1.496094 L 23.960938 1.464844 C 23.808594 1.277344 23.773438 0.957031 23.878906 0.726562 C 23.902344 0.671875 23.976562 0.550781 23.984375 0.550781 C 23.988281 0.550781 23.988281 0.765625 23.988281 1.023438 M 5.398438 3.738281 C 5.648438 3.765625 5.949219 3.855469 6.175781 3.976562 L 6.289062 4.035156 C 6.476562 4.132812 6.785156 4.398438 6.949219 4.605469 C 7.53125 5.332031 7.636719 6.335938 7.214844 7.148438 L 7.164062 7.25 L 7.191406 7.273438 C 7.207031 7.289062 7.238281 7.3125 7.257812 7.324219 C 7.277344 7.339844 7.300781 7.359375 7.308594 7.367188 C 7.320312 7.378906 7.789062 7.765625 7.933594 7.878906 C 7.964844 7.902344 7.992188 7.925781 8.019531 7.953125 C 8.027344 7.960938 8.109375 8.023438 8.199219 8.101562 C 8.40625 8.265625 8.375 8.242188 8.53125 8.371094 C 8.605469 8.429688 8.691406 8.5 8.71875 8.523438 C 8.785156 8.574219 8.796875 8.589844 8.878906 8.652344 C 8.90625 8.675781 8.945312 8.710938 8.964844 8.726562 L 9.023438 8.769531 C 9.046875 8.792969 9.535156 9.191406 9.609375 9.253906 C 9.636719 9.273438 9.679688 9.3125 9.707031 9.332031 C 9.765625 9.378906 9.828125 9.433594 9.933594 9.519531 C 9.980469 9.558594 10.027344 9.59375 10.035156 9.601562 C 10.042969 9.609375 10.144531 9.691406 10.257812 9.785156 C 10.371094 9.878906 10.496094 9.980469 10.535156 10.011719 C 10.578125 10.046875 10.644531 10.101562 10.683594 10.136719 C 10.730469 10.171875 10.78125 10.214844 10.808594 10.234375 C 10.832031 10.253906 10.859375 10.273438 10.863281 10.28125 C 10.875 10.292969 11.289062 10.632812 11.386719 10.710938 C 11.414062 10.730469 11.488281 10.792969 11.550781 10.84375 C 11.617188 10.898438 11.675781 10.949219 11.683594 10.953125 C 11.691406 10.960938 11.75 11.007812 11.808594 11.054688 C 11.871094 11.105469 11.929688 11.152344 11.9375 11.164062 C 11.953125 11.171875 12.023438 11.230469 12.097656 11.289062 C 12.171875 11.351562 12.265625 11.429688 12.308594 11.464844 C 12.351562 11.5 12.441406 11.570312 12.503906 11.625 C 12.566406 11.675781 12.628906 11.726562 12.640625 11.734375 C 12.648438 11.746094 12.757812 11.835938 12.886719 11.9375 C 13.011719 12.039062 13.136719 12.140625 13.164062 12.167969 C 13.183594 12.183594 13.207031 12.199219 13.226562 12.21875 C 13.234375 12.226562 13.261719 12.25 13.292969 12.273438 C 13.316406 12.289062 13.339844 12.308594 13.363281 12.328125 C 13.371094 12.335938 13.390625 12.351562 13.402344 12.359375 C 13.414062 12.371094 13.507812 12.449219 13.613281 12.535156 C 13.835938 12.71875 13.800781 12.707031 13.894531 12.632812 C 14.597656 12.078125 15.550781 11.964844 16.359375 12.34375 C 16.480469 12.402344 16.691406 12.519531 16.742188 12.5625 C 16.75 12.570312 16.796875 12.605469 16.839844 12.640625 C 16.980469 12.757812 17.109375 12.886719 17.222656 13.023438 C 17.269531 13.0625 17.457031 13.382812 17.515625 13.519531 C 17.789062 14.148438 17.792969 14.761719 17.527344 15.425781 C 17.300781 16 16.71875 16.527344 16.089844 16.730469 C 14.09375 17.371094 12.324219 15.304688 13.25 13.417969 C 13.273438 13.382812 13.289062 13.347656 13.300781 13.308594 C 13.214844 13.242188 13.132812 13.175781 13.050781 13.105469 C 13.046875 13.101562 12.953125 13.023438 12.84375 12.933594 C 12.769531 12.875 12.695312 12.8125 12.621094 12.753906 C 12.554688 12.699219 12.492188 12.648438 12.433594 12.597656 C 12.277344 12.46875 12.121094 12.34375 11.964844 12.214844 C 11.800781 12.085938 11.5625 11.886719 11.539062 11.871094 C 11.496094 11.832031 11.445312 11.792969 11.398438 11.753906 C 11.332031 11.699219 11.273438 11.652344 11.269531 11.648438 C 11.203125 11.589844 11.136719 11.535156 11.066406 11.476562 C 10.953125 11.390625 10.851562 11.304688 10.835938 11.289062 C 10.8125 11.273438 10.789062 11.253906 10.765625 11.238281 C 10.746094 11.21875 10.722656 11.203125 10.714844 11.191406 C 10.679688 11.160156 10.644531 11.132812 10.605469 11.101562 L 9.898438 10.523438 C 9.855469 10.488281 9.8125 10.453125 9.769531 10.417969 C 9.621094 10.296875 9.585938 10.265625 9.417969 10.128906 C 9.335938 10.0625 9.265625 10.003906 9.253906 9.996094 C 9.246094 9.984375 9.175781 9.929688 9.101562 9.871094 C 9.023438 9.808594 8.949219 9.75 8.9375 9.738281 C 8.894531 9.695312 8.84375 9.65625 8.796875 9.621094 C 8.753906 9.585938 8.710938 9.550781 8.671875 9.515625 L 8.542969 9.414062 C 8.476562 9.359375 8.410156 9.304688 8.394531 9.289062 C 8.363281 9.261719 8.335938 9.238281 8.304688 9.214844 C 8.273438 9.195312 8.246094 9.171875 8.222656 9.148438 C 8.203125 9.132812 8.179688 9.113281 8.160156 9.097656 L 8.109375 9.058594 C 7.898438 8.882812 7.6875 8.707031 7.472656 8.535156 C 7.222656 8.328125 6.96875 8.121094 6.710938 7.914062 C 6.664062 7.878906 6.644531 7.867188 6.636719 7.886719 C 6.632812 7.894531 6.464844 8.019531 6.371094 8.082031 C 6.328125 8.113281 6.074219 8.246094 6.039062 8.257812 C 6.03125 8.261719 6.25 8.761719 6.410156 9.109375 L 6.546875 9.417969 C 6.589844 9.519531 6.636719 9.621094 6.6875 9.71875 C 6.6875 9.726562 6.707031 9.777344 6.730469 9.828125 C 6.753906 9.878906 6.816406 10.019531 6.867188 10.136719 L 6.992188 10.417969 C 7.027344 10.488281 7.121094 10.695312 7.214844 10.910156 C 7.335938 11.179688 7.457031 11.449219 7.578125 11.722656 C 7.597656 11.761719 7.675781 11.933594 7.753906 12.109375 C 7.828125 12.28125 7.90625 12.453125 7.925781 12.492188 C 7.941406 12.53125 7.996094 12.65625 8.046875 12.765625 C 8.097656 12.882812 8.152344 13.007812 8.175781 13.046875 C 8.191406 13.089844 8.238281 13.195312 8.28125 13.28125 C 8.316406 13.375 8.414062 13.585938 8.492188 13.761719 L 9.101562 15.125 L 9.25 15.449219 C 9.289062 15.546875 9.335938 15.644531 9.382812 15.738281 C 9.386719 15.742188 9.390625 15.753906 9.390625 15.761719 C 9.390625 15.769531 9.410156 15.820312 9.4375 15.871094 C 9.507812 16.019531 9.574219 16.167969 9.636719 16.320312 C 9.65625 16.363281 9.691406 16.445312 9.714844 16.492188 L 9.753906 16.578125 L 9.804688 16.554688 C 10.238281 16.359375 10.78125 16.378906 11.222656 16.601562 C 11.464844 16.726562 11.707031 16.941406 11.859375 17.175781 C 12.042969 17.464844 12.125 17.769531 12.117188 18.117188 L 12.113281 18.289062 L 12.195312 18.308594 C 12.238281 18.324219 12.308594 18.34375 12.347656 18.355469 C 12.453125 18.390625 12.5625 18.421875 12.859375 18.511719 C 13 18.554688 13.160156 18.601562 13.222656 18.621094 C 13.378906 18.671875 13.851562 18.8125 13.898438 18.824219 C 13.921875 18.832031 14.003906 18.859375 14.085938 18.882812 C 14.167969 18.90625 14.253906 18.933594 14.277344 18.941406 L 14.539062 19.023438 C 14.664062 19.058594 14.867188 19.121094 15 19.160156 C 15.277344 19.246094 15.558594 19.328125 15.757812 19.390625 L 16.128906 19.503906 C 16.414062 19.589844 17.167969 19.820312 17.574219 19.9375 C 17.914062 20.042969 17.894531 20.042969 17.933594 19.96875 C 17.984375 19.867188 18.117188 19.695312 18.230469 19.585938 C 18.464844 19.359375 18.742188 19.21875 19.097656 19.140625 C 19.507812 19.058594 20.066406 19.199219 20.40625 19.476562 L 20.484375 19.539062 C 20.5 19.546875 20.53125 19.53125 20.726562 19.386719 C 20.851562 19.296875 20.960938 19.21875 20.972656 19.210938 C 20.984375 19.207031 21.0625 19.148438 21.148438 19.085938 L 21.355469 18.9375 C 21.464844 18.863281 21.679688 18.707031 21.691406 18.695312 C 21.742188 18.660156 21.792969 18.621094 21.84375 18.589844 C 22 18.476562 22.359375 18.21875 22.378906 18.207031 C 22.382812 18.203125 22.4375 18.164062 22.496094 18.121094 C 22.558594 18.078125 22.613281 18.039062 22.617188 18.035156 C 22.625 18.027344 22.695312 17.980469 22.773438 17.921875 L 22.953125 17.792969 C 22.972656 17.78125 23.078125 17.707031 23.1875 17.628906 C 23.253906 17.585938 23.320312 17.535156 23.378906 17.480469 C 23.371094 17.441406 23.355469 17.40625 23.335938 17.371094 C 23.152344 16.964844 23.234375 16.492188 23.539062 16.167969 C 23.589844 16.113281 23.597656 16.105469 23.585938 16.082031 C 23.574219 16.070312 23.566406 16.054688 23.558594 16.042969 C 23.53125 15.992188 23.496094 15.941406 23.457031 15.894531 C 23.453125 15.890625 23.449219 15.886719 23.449219 15.878906 C 23.449219 15.875 23.410156 15.8125 23.363281 15.734375 C 23.328125 15.6875 23.296875 15.636719 23.269531 15.589844 C 23.238281 15.539062 23.207031 15.492188 23.179688 15.445312 C 23.140625 15.394531 23.109375 15.34375 23.078125 15.289062 C 23.046875 15.234375 23.011719 15.183594 22.972656 15.132812 L 22.886719 14.992188 C 22.859375 14.949219 22.828125 14.90625 22.800781 14.859375 C 22.789062 14.839844 22.773438 14.820312 22.761719 14.796875 C 22.710938 14.722656 22.660156 14.648438 22.613281 14.570312 L 22.527344 14.429688 C 22.484375 14.359375 22.414062 14.261719 22.382812 14.207031 C 22.347656 14.152344 22.320312 14.105469 22.3125 14.101562 C 22.300781 14.085938 22.292969 14.070312 22.28125 14.054688 C 22.234375 13.976562 22.1875 13.898438 22.136719 13.824219 C 22.078125 13.726562 21.984375 13.585938 21.941406 13.515625 C 21.894531 13.445312 21.851562 13.382812 21.847656 13.375 C 21.839844 13.371094 21.816406 13.328125 21.792969 13.289062 C 21.769531 13.246094 21.710938 13.15625 21.664062 13.082031 C 21.628906 13.03125 21.597656 12.980469 21.5625 12.929688 C 21.519531 12.859375 21.472656 12.785156 21.425781 12.71875 L 21.335938 12.742188 C 20.5625 12.996094 19.777344 12.335938 19.902344 11.535156 C 20.074219 10.433594 21.578125 10.25 22.011719 11.277344 L 22.054688 11.386719 L 23.988281 11.386719 L 23.988281 11.640625 L 22.097656 11.640625 L 22.09375 11.757812 C 22.078125 12.019531 21.972656 12.261719 21.804688 12.441406 C 21.765625 12.480469 21.742188 12.515625 21.746094 12.523438 C 21.75 12.539062 22.570312 13.820312 22.613281 13.886719 C 22.625 13.902344 22.695312 14.007812 22.765625 14.125 C 22.84375 14.242188 22.96875 14.441406 23.054688 14.570312 L 23.214844 14.824219 C 23.25 14.886719 23.304688 14.96875 23.316406 14.972656 C 23.320312 14.976562 23.324219 14.980469 23.324219 14.988281 C 23.324219 14.992188 23.332031 15.015625 23.34375 15.027344 L 23.441406 15.175781 C 23.480469 15.238281 23.515625 15.292969 23.519531 15.292969 C 23.523438 15.296875 23.527344 15.308594 23.53125 15.320312 C 23.539062 15.328125 23.601562 15.433594 23.679688 15.546875 C 23.753906 15.664062 23.832031 15.792969 23.859375 15.832031 C 23.890625 15.886719 23.90625 15.902344 23.921875 15.898438 C 23.9375 15.894531 23.953125 15.890625 23.964844 15.882812 C 23.988281 15.878906 23.988281 15.882812 23.988281 16.921875 L 23.988281 17.96875 L 23.945312 17.953125 C 23.828125 17.90625 23.71875 17.839844 23.621094 17.757812 C 23.585938 17.71875 23.585938 17.71875 23.46875 17.804688 L 23.296875 17.921875 C 23.257812 17.949219 23.222656 17.976562 23.214844 17.980469 C 23.210938 17.988281 23.089844 18.070312 22.953125 18.171875 C 22.863281 18.230469 22.777344 18.292969 22.695312 18.355469 C 22.691406 18.359375 22.65625 18.382812 22.621094 18.410156 C 22.554688 18.453125 22.402344 18.566406 22.378906 18.585938 C 22.363281 18.597656 22.347656 18.609375 22.332031 18.617188 L 22.285156 18.648438 C 22.28125 18.652344 22.171875 18.730469 22.039062 18.824219 C 21.953125 18.886719 21.863281 18.949219 21.777344 19.011719 C 21.757812 19.023438 21.679688 19.082031 21.597656 19.140625 C 21.515625 19.199219 21.433594 19.257812 21.421875 19.265625 C 21.316406 19.339844 21.214844 19.414062 21.113281 19.488281 C 20.980469 19.582031 20.84375 19.679688 20.800781 19.707031 L 20.714844 19.769531 C 20.710938 19.773438 20.726562 19.8125 20.757812 19.855469 C 21.042969 20.285156 21.113281 20.816406 20.953125 21.304688 C 20.914062 21.425781 20.785156 21.683594 20.765625 21.695312 C 20.761719 21.695312 20.753906 21.703125 20.753906 21.710938 C 20.753906 21.71875 20.75 21.730469 20.746094 21.730469 C 20.726562 21.753906 20.707031 21.777344 20.691406 21.800781 C 20.609375 21.90625 20.316406 22.175781 20.28125 22.175781 L 20.179688 22.230469 C 19.496094 22.621094 18.59375 22.445312 18.097656 21.824219 C 18.074219 21.796875 18.050781 21.769531 18.027344 21.742188 C 17.96875 21.652344 17.917969 21.558594 17.871094 21.464844 C 17.769531 21.246094 17.71875 21.003906 17.726562 20.757812 L 17.726562 20.570312 L 17.597656 20.53125 C 17.527344 20.511719 17.425781 20.476562 17.375 20.464844 C 17.210938 20.417969 16.613281 20.234375 16.5 20.199219 C 15.964844 20.035156 15.429688 19.875 14.894531 19.714844 L 14.421875 19.566406 C 14.351562 19.546875 14.261719 19.519531 14.222656 19.511719 L 14.109375 19.476562 C 13.972656 19.429688 11.972656 18.828125 11.960938 18.828125 C 11.949219 18.828125 11.933594 18.84375 11.925781 18.859375 C 11.914062 18.890625 11.84375 19.003906 11.824219 19.027344 L 11.769531 19.105469 C 11.679688 19.214844 11.578125 19.3125 11.464844 19.398438 C 11.417969 19.433594 11.375 19.46875 11.363281 19.472656 C 10.847656 19.804688 10.191406 19.824219 9.660156 19.527344 C 9.625 19.507812 9.589844 19.488281 9.558594 19.46875 C 9.546875 19.464844 9.539062 19.460938 9.53125 19.453125 C 9.523438 19.445312 9.472656 19.40625 9.425781 19.367188 C 9.269531 19.242188 9.140625 19.089844 9.035156 18.917969 L 8.984375 18.828125 C 8.679688 18.296875 8.773438 17.523438 9.195312 17.007812 C 9.265625 16.921875 9.273438 16.914062 9.253906 16.878906 C 9.234375 16.839844 9.214844 16.796875 9.195312 16.75 C 9.171875 16.695312 9.148438 16.640625 9.121094 16.585938 C 9.109375 16.554688 9.078125 16.492188 9.058594 16.445312 C 9.007812 16.332031 8.957031 16.21875 8.90625 16.105469 L 8.777344 15.816406 C 8.453125 15.089844 8.359375 14.882812 8.316406 14.792969 C 8.292969 14.734375 8.257812 14.652344 8.242188 14.617188 L 8.171875 14.464844 C 8.148438 14.410156 8.125 14.355469 8.097656 14.296875 C 8.03125 14.152344 7.964844 14.003906 7.902344 13.855469 C 7.859375 13.769531 7.785156 13.597656 7.730469 13.472656 C 7.671875 13.351562 7.554688 13.078125 7.460938 12.871094 C 7.394531 12.722656 7.324219 12.574219 7.257812 12.421875 C 7.207031 12.324219 7.164062 12.21875 7.121094 12.117188 C 7.109375 12.082031 7.09375 12.046875 7.078125 12.015625 L 6.992188 11.828125 C 6.96875 11.777344 6.933594 11.703125 6.917969 11.660156 C 6.898438 11.621094 6.863281 11.539062 6.835938 11.484375 C 6.632812 11.027344 6.433594 10.582031 6.300781 10.285156 L 6.105469 9.847656 C 6.085938 9.796875 6.0625 9.75 6.054688 9.738281 C 6.03125 9.683594 6.007812 9.628906 5.984375 9.574219 L 5.886719 9.355469 C 5.792969 9.152344 5.703125 8.949219 5.613281 8.746094 C 5.589844 8.691406 5.5625 8.632812 5.535156 8.578125 L 5.488281 8.46875 L 5.46875 8.425781 L 5.386719 8.429688 C 4.882812 8.476562 4.472656 8.40625 4.046875 8.191406 C 3.945312 8.140625 3.84375 8.082031 3.75 8.019531 C 3.742188 8.011719 3.691406 7.976562 3.640625 7.933594 C 2.710938 7.207031 2.472656 5.882812 3.085938 4.867188 C 3.570312 4.0625 4.453125 3.632812 5.398438 3.738281 M 23.984375 6.460938 C 23.875 6.507812 23.761719 6.550781 23.648438 6.589844 L 23.421875 6.667969 L 23.089844 6.785156 C 22.960938 6.832031 22.832031 6.878906 22.796875 6.890625 C 22.761719 6.902344 22.554688 6.976562 22.335938 7.050781 C 22.117188 7.132812 21.820312 7.234375 21.671875 7.289062 C 21.117188 7.484375 20.289062 7.777344 20.25 7.792969 C 20.214844 7.804688 20.207031 7.808594 20.210938 7.839844 C 20.242188 8.152344 20.179688 8.488281 20.050781 8.699219 C 19.726562 9.230469 19.152344 9.488281 18.582031 9.355469 C 17.539062 9.109375 17.167969 7.832031 17.921875 7.085938 C 18.4375 6.570312 19.265625 6.558594 19.796875 7.058594 C 19.847656 7.101562 19.976562 7.257812 19.984375 7.277344 C 20.011719 7.332031 20.050781 7.382812 20.066406 7.378906 C 20.078125 7.375 20.207031 7.328125 20.355469 7.273438 L 20.902344 7.082031 C 21.054688 7.027344 21.300781 6.941406 21.449219 6.886719 L 22.28125 6.59375 C 22.585938 6.484375 22.921875 6.367188 23.023438 6.332031 L 23.371094 6.203125 C 23.503906 6.160156 23.632812 6.117188 23.761719 6.070312 L 23.984375 5.992188 L 23.984375 6.226562 C 23.988281 6.355469 23.984375 6.460938 23.984375 6.460938 M 0 14.785156 C 0 15.675781 0 15.683594 0.0234375 15.742188 C 0.0546875 15.816406 -0.0859375 15.832031 0.933594 15.636719 C 1.398438 15.546875 1.921875 15.445312 2.269531 15.378906 L 3.335938 15.171875 C 3.394531 15.160156 3.554688 15.128906 3.695312 15.101562 L 3.941406 15.050781 L 3.949219 14.972656 C 3.953125 14.929688 3.953125 14.890625 3.945312 14.882812 C 3.945312 14.878906 3.675781 14.808594 3.359375 14.730469 C 3.042969 14.652344 2.472656 14.511719 2.097656 14.414062 C 1.722656 14.320312 1.105469 14.164062 0.726562 14.070312 C 0.347656 13.976562 0.0273438 13.894531 0.0195312 13.890625 C 0 13.886719 0 13.933594 0 14.78125 M 10.941406 22.976562 C 10.714844 23.011719 10.796875 23 9.835938 23.148438 C 9.4375 23.214844 9.097656 23.265625 9.082031 23.269531 C 9.066406 23.273438 9.015625 23.28125 8.972656 23.289062 C 8.839844 23.3125 7.167969 23.574219 6.929688 23.609375 C 6.8125 23.632812 6.621094 23.660156 6.507812 23.679688 C 6.429688 23.691406 6.351562 23.703125 6.273438 23.710938 C 6.246094 23.710938 6.238281 23.734375 6.238281 23.796875 C 6.234375 23.839844 6.226562 23.882812 6.214844 23.921875 L 6.195312 24 L 10.683594 24 L 10.710938 23.960938 L 10.789062 23.875 C 10.925781 23.734375 11.054688 23.59375 11.183594 23.449219 C 11.257812 23.371094 11.257812 23.378906 11.203125 23.292969 C 11.144531 23.199219 11.09375 23.101562 11.050781 23 C 11.046875 22.976562 11.035156 22.957031 11.03125 22.957031 C 11.027344 22.960938 10.984375 22.964844 10.941406 22.976562 M 13.484375 23.34375 C 13.125 23.882812 12.324219 24.066406 11.71875 23.75 L 11.597656 23.691406 L 11.523438 23.769531 C 11.488281 23.808594 11.421875 23.878906 11.386719 23.921875 L 11.316406 24 L 14.949219 24 L 14.828125 23.945312 C 14.769531 23.914062 14.609375 23.835938 14.480469 23.773438 C 14.351562 23.710938 14.148438 23.609375 14.023438 23.550781 C 13.902344 23.492188 13.78125 23.429688 13.660156 23.371094 C 13.492188 23.289062 13.515625 23.292969 13.484375 23.34375"/></svg>