<svg xmlns="http://www.w3.org/2000/svg" font-family="sans-serif" viewBox="0 0 600 252"><rect width="600" height="252" fill="#fff"/><rect width="500" height="53" x="80" y="35" fill="#f7f7f7"/><rect width="500" height="53" x="80" y="88" fill="#fff"/><rect width="500" height="53" x="80" y="141" fill="#f7f7f7"/><rect width="79" height="159" x="0" y="35" fill="#eee"/><text x="300" y="22" fill="#2c2c2c" font-size="13" font-weight="bold" text-anchor="middle">Backfill scheduling</text><line x1="142.5" x2="142.5" y1="35" y2="194" stroke="#ebebeb" stroke-width="1"/><line x1="205" x2="205" y1="35" y2="194" stroke="#e0e0e0" stroke-width="1"/><line x1="267.5" x2="267.5" y1="35" y2="194" stroke="#e0e0e0" stroke-width="1"/><line x1="330" x2="330" y1="35" y2="194" stroke="#ebebeb" stroke-width="1"/><line x1="392.5" x2="392.5" y1="35" y2="194" stroke="#e0e0e0" stroke-width="1"/><line x1="455" x2="455" y1="28" y2="194" stroke="#b85820" stroke-dasharray="5 3" stroke-width="1.5" opacity=".75"/><line x1="517.5" x2="517.5" y1="35" y2="194" stroke="#ebebeb" stroke-width="1"/><line x1="0" x2="600" y1="35" y2="35" stroke="#ddd" stroke-width="1"/><line x1="0" x2="600" y1="88" y2="88" stroke="#ddd" stroke-width="1"/><line x1="0" x2="600" y1="141" y2="141" stroke="#ddd" stroke-width="1"/><line x1="0" x2="600" y1="194" y2="194" stroke="#ddd" stroke-width="1"/><line x1="80" x2="80" y1="35" y2="194" stroke="#bbb" stroke-width="1"/><text x="39" y="66" fill="#555" font-size="12" text-anchor="middle">Node 1</text><text x="39" y="119" fill="#555" font-size="12" text-anchor="middle">Node 2</text><text x="39" y="172" fill="#555" font-size="12" text-anchor="middle">Node 3</text><rect width="373" height="45" x="81" y="39" fill="#4a7cb8" rx="3"/><text x="267.5" y="66" fill="#fff" font-size="11" font-weight="bold" text-anchor="middle">Job A (running)</text><rect width="123" height="45" x="456" y="39" fill="#b85820" rx="3"/><text x="517.5" y="66" fill="#fff" font-size="11" font-weight="bold" text-anchor="middle">Job X</text><rect width="185.5" height="45" x="81" y="92" fill="#4a7cb8" rx="3"/><text x="173.75" y="119" fill="#fff" font-size="11" font-weight="bold" text-anchor="middle">Job B (running)</text><rect width="123" height="45" x="268.5" y="92" fill="#3c9e56" rx="3"/><text x="330" y="119" fill="#fff" font-size="11" font-weight="bold" text-anchor="middle">Job Z (backfill)</text><rect width="123" height="45" x="456" y="92" fill="#b85820" rx="3"/><text x="517.5" y="119" fill="#fff" font-size="11" font-weight="bold" text-anchor="middle">Job X</text><rect width="123" height="45" x="81" y="145" fill="#4a7cb8" rx="3"/><text x="142.5" y="172" fill="#fff" font-size="11" font-weight="bold" text-anchor="middle">Job C (running)</text><rect width="185.5" height="45" x="206" y="145" fill="#3c9e56" rx="3"/><text x="298.75" y="172" fill="#fff" font-size="11" font-weight="bold" text-anchor="middle">Job Y (backfill)</text><rect width="123" height="45" x="456" y="145" fill="#b85820" rx="3"/><text x="517.5" y="172" fill="#fff" font-size="11" font-weight="bold" text-anchor="middle">Job X</text><line x1="80" x2="580" y1="194" y2="194" stroke="#888" stroke-width="1.5"/><line x1="80" x2="80" y1="194" y2="201" stroke="#888" stroke-width="1.5"/><line x1="142.5" x2="142.5" y1="194" y2="201" stroke="#888" stroke-width="1.5"/><line x1="205" x2="205" y1="194" y2="201" stroke="#888" stroke-width="1.5"/><line x1="267.5" x2="267.5" y1="194" y2="201" stroke="#888" stroke-width="1.5"/><line x1="330" x2="330" y1="194" y2="201" stroke="#888" stroke-width="1.5"/><line x1="392.5" x2="392.5" y1="194" y2="201" stroke="#888" stroke-width="1.5"/><line x1="455" x2="455" y1="194" y2="201" stroke="#b85820" stroke-width="1.5"/><line x1="517.5" x2="517.5" y1="194" y2="201" stroke="#888" stroke-width="1.5"/><line x1="580" x2="580" y1="194" y2="201" stroke="#888" stroke-width="1.5"/><text x="80" y="212" fill="#666" font-size="10" text-anchor="middle">t=0</text><text x="142.5" y="212" fill="#666" font-size="10" text-anchor="middle">t=1</text><text x="205" y="212" fill="#666" font-size="10" text-anchor="middle">t=2</text><text x="267.5" y="212" fill="#666" font-size="10" text-anchor="middle">t=3</text><text x="330" y="212" fill="#666" font-size="10" text-anchor="middle">t=4</text><text x="392.5" y="212" fill="#666" font-size="10" text-anchor="middle">t=5</text><text x="455" y="212" fill="#b85820" font-size="10" text-anchor="middle">t=6</text><text x="517.5" y="212" fill="#666" font-size="10" text-anchor="middle">t=7</text><text x="580" y="212" fill="#666" font-size="10" text-anchor="middle">t=8</text><text x="455" y="27" fill="#b85820" font-size="9" font-style="italic" text-anchor="middle">Job X scheduled start</text><rect width="12" height="10" x="85" y="230" fill="#4a7cb8" rx="2"/><text x="101" y="239" fill="#555" font-size="10">Currently running</text><rect width="12" height="10" x="218" y="230" fill="#3c9e56" rx="2"/><text x="234" y="239" fill="#555" font-size="10">Backfilled (runs in gap, doesn&apos;t delay Job X)</text><rect width="12" height="10" x="488" y="230" fill="#b85820" rx="2"/><text x="504" y="239" fill="#555" font-size="10">Job X</text></svg>