<svg xmlns="http://www.w3.org/2000/svg" font-family="sans-serif" viewBox="0 0 540 315"><rect width="540" height="315" fill="#1e1e2e"/><rect width="450" height="240" x="65" y="40" fill="#252535"/><rect width="150" height="40" x="65" y="160" fill="#2e2e42"/><rect width="50" height="160" x="365" y="80" fill="#2e2e42"/><text x="290" y="22" fill="#d0d0e8" font-size="13" font-weight="bold" text-anchor="middle">Job distribution across nodes</text><line x1="65" x2="65" y1="40" y2="280" stroke="#404060" stroke-width="1"/><line x1="115" x2="115" y1="40" y2="280" stroke="#383858" stroke-width="1"/><line x1="165" x2="165" y1="40" y2="280" stroke="#383858" stroke-width="1"/><line x1="215" x2="215" y1="40" y2="280" stroke="#404060" stroke-width="1"/><line x1="265" x2="265" y1="40" y2="280" stroke="#383858" stroke-width="1"/><line x1="315" x2="315" y1="40" y2="280" stroke="#383858" stroke-width="1"/><line x1="365" x2="365" y1="40" y2="280" stroke="#404060" stroke-width="1"/><line x1="415" x2="415" y1="40" y2="280" stroke="#404060" stroke-width="1"/><line x1="465" x2="465" y1="40" y2="280" stroke="#383858" stroke-width="1"/><line x1="515" x2="515" y1="40" y2="280" stroke="#404060" stroke-width="1"/><line x1="65" x2="515" y1="40" y2="40" stroke="#404060" stroke-width="1"/><line x1="65" x2="515" y1="80" y2="80" stroke="#383858" stroke-width="1"/><line x1="65" x2="515" y1="120" y2="120" stroke="#383858" stroke-width="1"/><line x1="65" x2="515" y1="160" y2="160" stroke="#383858" stroke-width="1"/><line x1="65" x2="515" y1="200" y2="200" stroke="#383858" stroke-width="1"/><line x1="65" x2="515" y1="240" y2="240" stroke="#383858" stroke-width="1"/><line x1="65" x2="515" y1="280" y2="280" stroke="#404060" stroke-width="1"/><rect width="148" height="118" x="66" y="41" fill="#3d6fa8" rx="3"/><text x="140" y="97" fill="#fff" font-size="12" font-weight="bold" text-anchor="middle">Job A</text><text x="140" y="111" fill="rgba(255,255,255,0.8)" font-size="9" text-anchor="middle">3 nodes × 3 time units</text><rect width="148" height="78" x="66" y="201" fill="#2e8a48" rx="3"/><text x="140" y="237" fill="#fff" font-size="12" font-weight="bold" text-anchor="middle">Job B</text><text x="140" y="251" fill="rgba(255,255,255,0.8)" font-size="9" text-anchor="middle">2 nodes × 3 units</text><rect width="198" height="38" x="216" y="41" fill="#c06828" rx="3"/><text x="315" y="64" fill="#fff" font-size="11" font-weight="bold" text-anchor="middle">Job C</text><rect width="148" height="158" x="216" y="81" fill="#7c3fa0" rx="3"/><text x="290" y="157" fill="#fff" font-size="12" font-weight="bold" text-anchor="middle">Job D</text><text x="290" y="171" fill="rgba(255,255,255,0.8)" font-size="9" text-anchor="middle">4 nodes × 3 time units</text><rect width="198" height="38" x="216" y="241" fill="#128070" rx="3"/><text x="315" y="264" fill="#fff" font-size="11" font-weight="bold" text-anchor="middle">Job E</text><rect width="98" height="238" x="416" y="41" fill="#2a3550" rx="3"/><text x="465" y="157" fill="#fff" font-size="12" font-weight="bold" text-anchor="middle">Job F</text><text x="465" y="171" fill="rgba(255,255,255,0.8)" font-size="9" text-anchor="middle">6 nodes × 2 units</text><text x="140" y="184" fill="#6060a0" font-size="10" font-style="italic" text-anchor="middle">free</text><text x="390" y="163" fill="#6060a0" font-size="10" font-style="italic" text-anchor="middle">free</text><line x1="65" x2="65" y1="40" y2="280" stroke="#7070a0" stroke-width="1.5"/><line x1="60" x2="65" y1="60" y2="60" stroke="#7070a0" stroke-width="1.5"/><line x1="60" x2="65" y1="100" y2="100" stroke="#7070a0" stroke-width="1.5"/><line x1="60" x2="65" y1="140" y2="140" stroke="#7070a0" stroke-width="1.5"/><line x1="60" x2="65" y1="180" y2="180" stroke="#7070a0" stroke-width="1.5"/><line x1="60" x2="65" y1="220" y2="220" stroke="#7070a0" stroke-width="1.5"/><line x1="60" x2="65" y1="260" y2="260" stroke="#7070a0" stroke-width="1.5"/><text x="57" y="64" fill="#9090b0" font-size="10" text-anchor="end">Node 1</text><text x="57" y="104" fill="#9090b0" font-size="10" text-anchor="end">Node 2</text><text x="57" y="144" fill="#9090b0" font-size="10" text-anchor="end">Node 3</text><text x="57" y="184" fill="#9090b0" font-size="10" text-anchor="end">Node 4</text><text x="57" y="224" fill="#9090b0" font-size="10" text-anchor="end">Node 5</text><text x="57" y="264" fill="#9090b0" font-size="10" text-anchor="end">Node 6</text><text x="12" y="160" fill="#9090b0" font-size="11" text-anchor="middle" transform="rotate(-90,12,160)">Nodes</text><line x1="65" x2="515" y1="280" y2="280" stroke="#7070a0" stroke-width="1.5"/><line x1="65" x2="65" y1="280" y2="285" stroke="#7070a0" stroke-width="1.5"/><line x1="115" x2="115" y1="280" y2="285" stroke="#7070a0" stroke-width="1.5"/><line x1="165" x2="165" y1="280" y2="285" stroke="#7070a0" stroke-width="1.5"/><line x1="215" x2="215" y1="280" y2="285" stroke="#7070a0" stroke-width="1.5"/><line x1="265" x2="265" y1="280" y2="285" stroke="#7070a0" stroke-width="1.5"/><line x1="315" x2="315" y1="280" y2="285" stroke="#7070a0" stroke-width="1.5"/><line x1="365" x2="365" y1="280" y2="285" stroke="#7070a0" stroke-width="1.5"/><line x1="415" x2="415" y1="280" y2="285" stroke="#7070a0" stroke-width="1.5"/><line x1="465" x2="465" y1="280" y2="285" stroke="#7070a0" stroke-width="1.5"/><line x1="515" x2="515" y1="280" y2="285" stroke="#7070a0" stroke-width="1.5"/><text x="65" y="296" fill="#9090b0" font-size="10" text-anchor="middle">0</text><text x="115" y="296" fill="#9090b0" font-size="10" text-anchor="middle">1</text><text x="165" y="296" fill="#9090b0" font-size="10" text-anchor="middle">2</text><text x="215" y="296" fill="#9090b0" font-size="10" text-anchor="middle">3</text><text x="265" y="296" fill="#9090b0" font-size="10" text-anchor="middle">4</text><text x="315" y="296" fill="#9090b0" font-size="10" text-anchor="middle">5</text><text x="365" y="296" fill="#9090b0" font-size="10" text-anchor="middle">6</text><text x="415" y="296" fill="#9090b0" font-size="10" text-anchor="middle">7</text><text x="465" y="296" fill="#9090b0" font-size="10" text-anchor="middle">8</text><text x="515" y="296" fill="#9090b0" font-size="10" text-anchor="middle">9</text><text x="290" y="312" fill="#9090b0" font-size="11" text-anchor="middle">Time</text></svg>