<svg xmlns="http://www.w3.org/2000/svg" xmlns:xlink="http://www.w3.org/1999/xlink" viewBox="0 0 180 46.7" width="216" height="56">
  <defs>
    <style>
      .st0 { fill: none; }
      .st1 { fill: #ce0e2d; }
      .st2 { clip-path: url(#clippath-1); }
      .st3 { clip-path: url(#clippath-2); }
      .st4 { fill: #fff; }
      .st5 { clip-path: url(#clippath); }
    </style>
    <clipPath id="clippath"><rect class="st0" width="180" height="46.7"/></clipPath>
    <clipPath id="clippath-1"><rect class="st0" width="180" height="46.7"/></clipPath>
    <clipPath id="clippath-2"><rect class="st0" width="180" height="46.7"/></clipPath>
  </defs>
  <g class="st5">
    <path fill="#ffffff" d="M24.9,43.2h2.2v-9.7h-2.2v-3h6.2v2.7h0c1.1-2,3.1-3.1,5.3-3.1,4.2,0,5.6,2.2,5.6,6.2v7h2.2v3h-8.7v-3h2v-6.8c0-1.6-.9-3.2-2.8-3.2s-3.4,2.2-3.4,4.2v5.7h2v3h-8.7v-3Z"/>
    <path fill="#ffffff" d="M47.3,43h2.8v-15.6h-2.8v-3.2h12c2.2,0,11.2.3,11.2,10.9s-4.6,11-11.7,11h-11.4v-3.2ZM54.7,43h3.7c4.8,0,7.2-3,7.2-7.8s-2.3-7.8-7.2-7.8h-3.7v15.6Z"/>
    <path fill="#ffffff" d="M76.6,39.7c0,2.5,1.4,4,3.9,4s2.7-.6,3.1-2.3h4.2c-.7,3.8-3.8,5.3-7.4,5.3-5.5,0-8.4-3.3-8.4-8.5s3.4-8.1,8.3-8.1,6.8,2.2,7.5,6c.2,1.2.2,2.4.2,3.6h-11.4ZM83.6,36.8c0-2.2-1.1-3.7-3.5-3.7s-3.5,1.6-3.5,3.7h6.9Z"/>
    <path fill="#ffffff" d="M90,43.2h2.2v-9.7h-2.2v-3h6.2v2.7h0c1.1-2,3.1-3.1,5.3-3.1s4.1.7,5.2,2.9c1.1-2,2.9-2.9,5.1-2.9,3.5,0,5.8,1.4,5.9,5.1v8.1h2.2v3h-8.7v-3h2v-6.8c0-1.7-.7-3.2-2.7-3.2s-3.5,1.9-3.5,4.1v5.9h2v3h-8.5v-3h2v-6.8c0-1.6-.9-3.2-2.8-3.2s-3.4,2.2-3.4,4.2v5.7h2v3h-8.7v-3Z"/>
    <path fill="#ffffff" d="M132,43.9h0c-1.4,2.1-2.8,2.8-5.2,2.8s-5.5-1.7-5.5-5c0-5.2,5.2-5.3,9.1-5.3h1.6v-1.2c0-1.8-1.4-2.4-3-2.4s-2.8.7-3,2.6h-4.2c.3-4.5,4-5.2,7.7-5.2s6.7,2.1,6.7,6.9v6.3h2v3h-6.1v-2.3ZM129.8,39c-2.3,0-4.3.4-4.3,2.5s1,2.1,2.4,2.1c2.7,0,4.2-1.9,4.1-4.6h-2.1Z"/>
    <path fill="#ffffff" d="M140.6,43.2h2.2v-9.7h-2.2v-3h6.2v2.7h0c1.1-2,3.1-3.1,5.3-3.1,4.2,0,5.6,2.2,5.6,6.2v7h2.2v3h-8.7v-3h2v-6.8c0-1.6-.9-3.2-2.8-3.2s-3.4,2.2-3.4,4.2v5.7h2v3h-8.7v-3Z"/>
  </g>
  <g class="st2">
    <path fill="#ffffff" d="M177.8,43.2h2.2v3h-6.2v-2.6h0c-1.4,2.2-2.8,3.1-5.6,3.1-4.6,0-6.8-3.9-6.8-8.1s3-8.6,7.1-8.6,4.1,1.3,4.9,2.8h0v-6h-2.2v-3h6.6v19.4ZM173.6,38.1c0-2.6-1.1-4.9-3.9-4.9s-3.7,2.6-3.7,5.1,1.4,5.1,3.3,5.1c3.4,0,4.3-2,4.3-5.4"/>
    <path class="st1" d="M11.7,23.9c-3.6,0-6.8,1.7-8.9,4.3.1,0,.3,0,.4.2l4.2,2.1c1.1-1,2.6-1.6,4.2-1.6,3.6,0,6.5,2.9,6.5,6.5s-2.9,6.5-6.5,6.5-3.1-.6-4.2-1.6l-4.2,2.1c-.1,0-.3.1-.4.2,2.1,2.6,5.3,4.3,8.9,4.3,6.3,0,11.4-5.1,11.4-11.4s-5.1-11.4-11.4-11.4"/>
  </g>
  <g class="st3">
    <path class="st1" d="M2.2,30.7C1,30.1,0,30.7,0,32v6.6c0,1.3,1,1.9,2.2,1.3l7.4-3.6c1.2-.6,1.2-1.5,0-2.1l-7.4-3.6Z"/>
    <path fill="#000000" d="M52.5,18.2H4.9C2.3,18.2.1,16.1.1,13.4V4.8C.1,2.2,2.3,0,4.9,0h47.5c2.7,0,4.8,2.2,4.8,4.8v8.6c0,2.6-2.2,4.8-4.8,4.8"/>
    <path class="st4" d="M7,9.1c0-3,1.9-5.2,5.2-5.2s5.2,2.2,5.2,5.2-1.9,5.2-5.2,5.2-5.2-2.2-5.2-5.2M15.2,9.1c0-2.1-.9-3.7-3-3.7s-3,1.6-3,3.7.9,3.7,3,3.7,3-1.6,3-3.7"/>
    <path class="st4" d="M18.4,12.6h1.4v-7h-1.4v-1.4h5.3c1.6,0,3.5.3,3.5,3s-1.5,3.2-3.5,3.2h-1.9v2.3h1.6v1.4h-5v-1.4ZM21.8,8.9h1.1c1.2,0,2.2-.2,2.2-1.6s-1.2-1.7-2.3-1.7h-1v3.3Z"/>
    <polygon class="st4" points="28.4 12.6 29.7 12.6 29.7 5.6 28.4 5.6 28.4 4.2 37.4 4.2 37.4 7.1 35.7 7.1 35.7 5.6 31.8 5.6 31.8 8.3 33.3 8.3 33.3 7 34.8 7 34.8 11 33.3 11 33.3 9.7 31.8 9.7 31.8 12.6 35.7 12.6 35.7 10.8 37.4 10.8 37.4 14.1 28.4 14.1 28.4 12.6"/>
    <polygon class="st4" points="39.2 12.6 40.5 12.6 40.5 5.6 39.2 5.6 39.2 4.2 43.4 4.2 47.2 11.5 47.3 11.5 47.3 5.6 46 5.6 46 4.2 50.4 4.2 50.4 5.6 49.2 5.6 49.2 14.1 46.4 14.1 42.4 6.4 42.4 6.4 42.4 12.6 43.6 12.6 43.6 14.1 39.2 14.1 39.2 12.6"/>
  </g>
</svg>
